<?xml version="1.0" encoding="UTF-8" standalone="no"?>
<!-- Generator: Adobe Illustrator 16.0.0, SVG Export Plug-In . SVG Version: 6.00 Build 0)  -->

<svg
   xmlns:dc="http://purl.org/dc/elements/1.1/"
   xmlns:cc="http://creativecommons.org/ns#"
   xmlns:rdf="http://www.w3.org/1999/02/22-rdf-syntax-ns#"
   xmlns:svg="http://www.w3.org/2000/svg"
   xmlns="http://www.w3.org/2000/svg"
   xmlns:sodipodi="http://sodipodi.sourceforge.net/DTD/sodipodi-0.dtd"
   xmlns:inkscape="http://www.inkscape.org/namespaces/inkscape"
   version="1.0"
   id="Layer_1"
   x="0px"
   y="0px"
   width="61.000004"
   height="44.986309"
   viewBox="0 0 61.000003 44.98631"
   enable-background="new 0 0 1190.551 841.891"
   xml:space="preserve"
   inkscape:version="0.48.5 r10040"
   sodipodi:docname="black-tomato-black.svg"><metadata
     id="metadata40"><rdf:RDF><cc:Work
         rdf:about=""><dc:format>image/svg+xml</dc:format><dc:type
           rdf:resource="http://purl.org/dc/dcmitype/StillImage" /><dc:title></dc:title></cc:Work></rdf:RDF></metadata><defs
     id="defs38" /><sodipodi:namedview
     pagecolor="#ffffff"
     bordercolor="#666666"
     borderopacity="1"
     objecttolerance="10"
     gridtolerance="10"
     guidetolerance="10"
     inkscape:pageopacity="0"
     inkscape:pageshadow="2"
     inkscape:window-width="1414"
     inkscape:window-height="691"
     id="namedview36"
     showgrid="false"
     fit-margin-top="0"
     fit-margin-left="0"
     fit-margin-right="0"
     fit-margin-bottom="0"
     inkscape:zoom="0.254504"
     inkscape:cx="384.33949"
     inkscape:cy="283.4435"
     inkscape:window-x="0"
     inkscape:window-y="0"
     inkscape:window-maximized="0"
     inkscape:current-layer="Layer_1" /><g
     id="Black"
     transform="matrix(0.07935703,0,0,0.07935703,-16.739273,-10.911909)"><path
       d="m 779.557,594.199 c 0.107,21.229 -8.33,38.574 -24.148,52.453 -7.021,6.16 -15.296,10.146 -24.128,12.963 -3.722,1.188 -7.552,2.043 -11.349,2.98 -5.516,1.358 -11.144,1.188 -16.711,0.711 -13.327,-1.148 -25.223,-6.236 -35.979,-13.998 -12.212,-8.81 -19.904,-20.848 -24.102,-35.148 -1.571,-5.352 -2.815,-10.836 -3.69,-16.342 -0.546,-3.43 -0.375,-7.037 -0.088,-10.529 1.175,-14.26 6.324,-27.012 15.275,-38.151 11.808,-14.691 27.106,-23.752 45.81,-25.834 27.271,-3.039 49.686,6.391 66.201,28.553 7.454,10.002 11.617,21.443 12.568,33.965 0.085,1.115 0.288,2.226 0.325,3.342 0.057,1.676 0.016,3.355 0.016,5.035 z M 668.46,593.75 c 0.072,1.062 0.166,2.578 0.287,4.093 0.045,0.555 0.149,1.106 0.248,1.655 1.637,9.134 6.019,16.818 12.691,23.13 8.003,7.565 17.634,11.391 28.673,11.288 3.827,-0.034 7.611,-0.778 11.306,-1.903 19.866,-6.051 32.196,-26.467 28.305,-46.586 -4.174,-21.57 -27.686,-39.685 -54.125,-30.754 -15.926,5.378 -27.355,21.782 -27.385,39.077 z"
       id="path4"
       inkscape:connector-curvature="0"
       style="fill:#e92679" /><g
       id="g6"><path
         d="m 742.299,137.504 c 2.355,0.322 4.708,0.701 7.07,0.958 13.123,1.428 24.896,6.153 35.323,14.267 7.32,5.694 12.352,13.091 16.197,21.399 3.038,6.564 5.038,13.459 6.546,20.511 0.131,0.607 0.106,1.25 0.18,2.211 -10.966,0.028 -21.79,-0.254 -32.668,-0.279 -0.147,-0.507 -0.319,-0.871 -0.354,-1.248 -0.992,-10.87 -6.713,-18.803 -15.992,-23.888 -17.582,-9.635 -38.591,-4.074 -49.188,11.038 -3.549,5.062 -5.594,10.741 -6.97,16.709 -1.86,8.077 -2.232,16.303 -2.286,24.539 -0.046,7.113 0.06,14.233 0.329,21.342 0.322,8.503 1.706,16.812 4.725,24.852 5.792,15.43 22.001,23.874 36.117,23.317 5.283,-0.208 10.304,-1.411 15.038,-3.66 9.719,-4.616 15.325,-12.487 17.654,-22.849 0.297,-1.321 0.55,-2.651 0.828,-3.976 0.016,-0.072 0.09,-0.13 0.236,-0.332 10.731,0 21.562,0 32.613,0 -0.23,1.416 -0.417,2.664 -0.642,3.903 -1.173,6.458 -2.604,12.82 -5.453,18.814 -7.162,15.078 -18.795,25.475 -34.16,31.308 -24.707,9.379 -48.392,6.605 -70.466,-7.961 -9.369,-6.182 -16.021,-14.805 -20.449,-25.149 -4.119,-9.625 -6.807,-19.651 -8.057,-30.005 -1.76,-14.575 -1.569,-29.23 -0.364,-43.826 0.845,-10.222 3.396,-20.152 7.084,-29.762 6.65,-17.33 18.957,-29.077 35.75,-36.478 5.852,-2.577 12.064,-3.625 18.276,-4.745 1.802,-0.325 3.6,-0.673 5.399,-1.01 2.563,0 5.123,0 7.684,0 z"
         id="path8"
         inkscape:connector-curvature="0" /><path
         d="m 210.938,337.665 c 1.036,0.042 2.07,0.122 3.106,0.122 43.831,0.007 87.662,0.007 131.493,0.007 1.031,0 2.062,0 3.041,0 0.565,1.805 0.734,26.283 0.214,30.044 -17.336,0 -34.718,0 -52.41,0 0,49.367 0,98.435 0,147.41 -2.011,0.575 -27.816,0.756 -32.176,0.271 -0.047,-4.873 -0.016,-9.797 -0.021,-14.721 -0.006,-4.879 -0.002,-9.759 -0.002,-14.638 0,-4.959 0,-9.918 0,-14.877 0,-4.879 0,-9.758 0,-14.637 0,-4.959 0,-9.918 0,-14.877 0,-4.879 0,-9.758 0,-14.637 0,-4.959 0,-9.917 0,-14.876 0,-4.88 0,-9.76 0,-14.639 0,-4.959 0,-9.917 0,-14.876 0,-4.854 0,-9.709 0,-14.837 -17.946,0 -35.598,0 -53.247,0 0.002,-10.079 0.002,-20.159 0.002,-30.239 z"
         id="path10"
         inkscape:connector-curvature="0" /><path
         d="m 337.657,704.386 c 7.116,-20.279 14.246,-40.553 21.342,-60.836 2.4,-6.863 4.761,-13.74 7.043,-20.642 0.602,-1.813 1.597,-2.907 3.39,-3.668 10.742,-4.545 21.438,-9.207 32.149,-13.826 0.644,-0.276 1.304,-0.516 2.438,-0.961 -4.166,12.38 -8.196,24.357 -12.229,36.345 2.062,0.586 48.281,0.614 50.57,0.037 -5.198,-15.345 -10.391,-30.673 -15.669,-46.253 9.332,-4.157 18.494,-8.237 27.942,-12.448 0.581,1.393 1.125,2.522 1.535,3.701 4.149,11.92 8.237,23.862 12.422,35.771 9.399,26.758 18.849,53.498 28.264,80.25 0.288,0.818 0.434,1.686 0.646,2.529 -11.199,0 -22.399,0 -33.601,0 -3.668,-10.982 -7.334,-21.966 -11.013,-32.941 -0.121,-0.361 -0.374,-0.68 -0.557,-0.998 -23.652,0 -47.222,0 -70.805,0 -0.249,0.601 -0.495,1.104 -0.671,1.629 -3.415,10.229 -6.824,20.459 -10.223,30.693 -0.172,0.52 -0.226,1.076 -0.334,1.617 -10.878,10e-4 -21.759,10e-4 -32.639,10e-4 z"
         id="path12"
         inkscape:connector-curvature="0" /><path
         d="m 544.058,704.386 c -0.011,-1.041 -0.031,-2.08 -0.031,-3.119 -0.001,-47.119 -0.001,-94.236 -0.001,-141.355 0,-1.018 0,-2.034 0,-3.377 -10.785,0 -21.278,0 -31.771,0 -0.027,-0.164 -0.055,-0.328 -0.081,-0.489 0.526,-0.283 1.038,-0.607 1.585,-0.847 21.389,-9.344 42.777,-18.688 64.183,-27.994 0.995,-0.434 2.139,-0.735 3.213,-0.739 15.359,-0.048 30.719,-0.031 46.078,-0.027 0.472,0 0.943,0.049 1.382,0.074 0.543,1.793 0.75,24.817 0.267,29.957 -2.876,0.233 -5.809,0.073 -8.73,0.104 -2.879,0.027 -5.76,0.006 -8.639,0.006 -2.96,0 -5.92,0 -8.88,0 -2.88,0 -5.761,0 -8.641,0 -2.96,0 -5.92,0 -8.88,0 -2.854,0 -5.711,0 -8.859,0 0,1.3 0,2.316 0,3.334 0,47.117 10e-4,94.236 -0.001,141.354 0,1.041 -0.021,2.08 -0.031,3.121 -10.723,-0.003 -21.443,-0.003 -32.163,-0.003 z"
         id="path14"
         inkscape:connector-curvature="0" /><path
         d="m 286.777,704.386 c 0.079,-0.949 0.223,-1.896 0.228,-2.844 0.082,-15.031 0.146,-30.062 0.214,-45.093 0.004,-0.877 0,-1.752 0,-2.877 10.227,-4.438 20.442,-8.875 31.111,-13.506 0,1.248 0,2.088 0,2.926 0,19.509 -0.002,39.019 0.005,58.525 0.001,0.955 0.08,1.91 0.122,2.867 -10.56,0.002 -21.12,0.002 -31.68,0.002 z"
         id="path16"
         inkscape:connector-curvature="0" /><path
         d="m 556.021,515.578 c -10.058,0 -20.245,0 -30.574,0 0,-59.243 0,-118.381 0,-177.651 14.502,0 28.864,0 43.39,0 15.47,41.974 30.932,83.928 46.394,125.881 0.185,0.016 0.368,0.029 0.553,0.045 7.821,-20.908 15.518,-41.863 23.284,-62.792 7.758,-20.901 15.479,-41.815 23.312,-62.98 13.637,0 27.292,0 41.093,0 -0.088,-0.087 -0.029,-0.031 0.024,0.027 0.053,0.059 0.122,0.113 0.146,0.182 0.048,0.151 0.1,0.312 0.1,0.468 0.014,36.953 0.021,73.906 0.025,110.86 0,0.474 -0.051,0.947 -0.092,1.646 -10.202,4.401 -20.434,8.815 -31.086,13.414 0,-25.123 0,-49.78 0,-74.438 -0.18,-0.039 -0.357,-0.079 -0.536,-0.118 -0.287,0.683 -0.601,1.354 -0.857,2.045 -10.544,28.224 -21.103,56.44 -31.577,84.687 -0.761,2.053 -1.895,3.205 -3.904,4.059 -12.212,5.183 -24.363,10.513 -36.536,15.789 -0.656,0.285 -1.32,0.552 -2.309,0.963 -3.49,-9.135 -6.69,-18.297 -10.033,-27.403 -3.33,-9.076 -6.613,-18.172 -9.911,-27.263 -3.325,-9.163 -6.642,-18.331 -9.968,-27.494 -3.291,-9.068 -6.59,-18.134 -9.867,-27.15 -0.289,0.03 -0.378,0.019 -0.445,0.052 -0.056,0.028 -0.104,0.104 -0.122,0.166 -0.042,0.152 -0.067,0.311 -0.092,0.467 -0.013,0.078 -0.011,0.159 -0.012,0.239 -0.003,0.159 -0.007,0.319 -0.007,0.479 -0.004,41.592 -0.009,83.186 -0.014,124.777 0,0.08 -0.002,0.16 -0.01,0.24 -0.009,0.08 -0.025,0.158 -0.039,0.236 -0.014,0.078 -0.015,0.164 -0.048,0.233 -0.034,0.069 -0.102,0.121 -0.282,0.334 z"
         id="path18"
         inkscape:connector-curvature="0" /><path
         d="m 322.819,227.007 c 2.898,2.085 5.652,4.141 8.48,6.085 10.043,6.908 15.056,16.763 16.446,28.573 1.213,10.295 -0.071,20.295 -5.001,29.567 -7.686,14.457 -19.758,22.921 -35.828,25.75 -9.564,1.684 -19.231,1.983 -28.914,1.99 -21.191,0.015 -42.385,0.005 -63.576,0.005 -0.713,0 -1.425,0 -2.094,0 -0.528,-1.92 -0.604,-175.34 -0.089,-177.873 0.661,-0.036 1.362,-0.107 2.063,-0.107 24.15,-0.006 48.303,-0.093 72.452,0.038 9.147,0.05 18.168,1.299 26.782,4.662 8.818,3.443 16.469,8.436 22.062,16.272 4.141,5.8 6.326,12.317 7.456,19.27 1.143,7.024 1.188,14.045 -0.594,20.948 -2.746,10.642 -8.678,18.935 -18.582,24.116 -0.334,0.176 -0.638,0.421 -1.063,0.704 z m -78.697,62.971 c 0.952,0.062 1.732,0.141 2.515,0.161 4.075,0.103 8.152,0.149 12.228,0.293 10.476,0.37 20.941,0.443 31.376,-0.767 4.308,-0.5 8.498,-1.469 12.449,-3.325 6.578,-3.09 10.766,-8.092 12.316,-15.253 0.671,-3.098 0.607,-6.168 0.132,-9.286 -1.514,-9.899 -6.909,-16.449 -16.524,-19.428 -0.99,-0.307 -1.994,-0.592 -3.013,-0.779 -8.052,-1.485 -16.192,-1.874 -24.354,-1.749 -8.473,0.13 -16.941,0.443 -25.413,0.695 -0.602,0.019 -1.2,0.178 -1.712,0.257 0,16.477 0,32.754 0,49.181 z m -0.061,-76.586 c 1.056,0.056 1.844,0.11 2.634,0.137 6.555,0.21 13.109,0.429 19.665,0.617 8.567,0.246 17.112,-0.055 25.61,-1.23 4.333,-0.599 8.391,-1.954 12.014,-4.49 3.134,-2.192 5.325,-5.069 6.313,-8.766 0.515,-1.921 0.843,-3.898 1.142,-5.869 1.53,-10.109 -3.688,-19.099 -13.217,-22.718 -1.637,-0.621 -3.341,-1.231 -5.061,-1.428 -5.157,-0.592 -10.336,-1.333 -15.51,-1.369 -10.873,-0.077 -21.75,0.257 -32.625,0.434 -0.297,0.005 -0.593,0.142 -0.967,0.235 0.002,14.763 0.002,29.452 0.002,44.447 z"
         id="path20"
         inkscape:connector-curvature="0" /><path
         d="m 356.9,422.185 c -0.493,-9.468 0.548,-20.493 2.951,-31.258 6.041,-27.056 22.182,-45.406 48.958,-53.288 19.014,-5.597 37.954,-4.28 55.744,4.845 21.017,10.78 33.095,28.331 36.778,51.6 1.111,7.019 2.043,14.094 2.509,21.179 0.447,6.849 0.477,13.759 0.157,20.617 -0.292,6.293 -1.27,12.557 -1.988,18.827 -0.337,2.937 -0.519,5.925 -1.217,8.777 -6.906,28.262 -24.221,46.494 -52.633,53.441 -12.836,3.137 -25.86,2.979 -38.672,-0.722 -15.638,-4.521 -28.562,-12.993 -38.061,-26.405 -5.123,-7.236 -8.146,-15.369 -10.215,-23.886 -3.357,-13.828 -4.607,-27.891 -4.311,-43.727 z m 114.67,6.334 c -0.349,-7.702 -0.491,-14.02 -0.959,-20.312 -0.54,-7.28 -1.921,-14.425 -4.814,-21.181 -4.565,-10.659 -12.091,-18.151 -23.452,-21.312 -13.78,-3.833 -26.493,-1.812 -37.581,7.555 -7.13,6.021 -10.859,14.141 -12.869,23.049 -1.729,7.663 -2.231,15.492 -2.413,23.337 -0.104,4.474 -0.376,8.948 -0.295,13.417 0.068,3.83 0.505,7.656 0.831,11.479 0.414,4.86 1.039,9.684 2.352,14.405 1.974,7.103 4.701,13.875 10.104,19.058 10.384,9.961 22.553,14.242 36.899,10.596 13.021,-3.309 22.475,-10.779 27.242,-23.617 1.816,-4.893 3.07,-9.95 3.527,-15.133 0.666,-7.554 1.027,-15.136 1.428,-21.341 z"
         id="path22"
         inkscape:connector-curvature="0" /><path
         d="m 830.758,141.112 c 10.692,0 21.217,0 32.05,0 0,27.086 0,54.053 0,81.021 0.172,0.067 0.345,0.135 0.517,0.201 0.669,-0.739 1.352,-1.468 2.004,-2.221 21.288,-24.528 42.573,-49.059 63.859,-73.588 1.312,-1.511 2.573,-3.069 3.968,-4.497 0.498,-0.51 1.324,-0.988 2.002,-0.991 12.239,-0.053 24.479,-0.032 36.72,-0.018 0.137,0 0.271,0.112 0.749,0.324 -2.329,2.894 -4.723,5.618 -7.057,8.391 -2.317,2.753 -4.647,5.497 -6.975,8.245 -2.377,2.809 -4.753,5.619 -7.133,8.425 -2.379,2.807 -4.764,5.61 -7.145,8.416 -2.329,2.745 -4.656,5.491 -6.984,8.236 -2.381,2.805 -4.766,5.607 -7.146,8.413 -2.33,2.743 -4.659,5.488 -6.987,8.233 -2.372,2.797 -4.744,5.596 -7.163,8.45 21.188,36.834 42.297,73.529 63.577,110.523 -12.886,0 -25.321,0 -37.968,0 -15.934,-27.852 -31.916,-55.787 -48.027,-83.949 -0.762,0.812 -1.313,1.356 -1.816,1.945 -9.155,10.695 -18.283,21.415 -27.483,32.072 -1.135,1.314 -1.543,2.624 -1.536,4.322 0.055,14.16 0.03,28.319 0.03,42.479 0,0.954 0,1.908 0,2.815 -1.79,0.55 -28.475,0.709 -32.054,0.212 -0.002,-59.05 -0.002,-118.128 -0.002,-177.459 z"
         id="path24"
         inkscape:connector-curvature="0" /><path
         d="m 665.472,318.665 c -11.395,0 -22.462,0 -33.792,0 -3.769,-11.217 -7.55,-22.479 -11.355,-33.812 -23.676,0 -47.25,0 -71.098,0 -3.773,11.214 -7.562,22.471 -11.382,33.821 -10.716,0 -21.317,0 -31.91,0 -0.054,-0.073 -0.104,-0.131 -0.142,-0.196 -0.04,-0.068 -0.109,-0.154 -0.095,-0.214 0.158,-0.616 0.294,-1.241 0.504,-1.84 20.499,-58.424 41.004,-116.846 61.528,-175.322 11.796,0 23.457,0 35.396,0 20.734,59.049 41.498,118.187 62.346,177.563 z m -106.048,-63.2 c 16.988,0 33.648,0 50.322,0 -0.213,-2.45 -24.069,-72.744 -25.25,-74.282 -8.358,24.761 -16.679,49.411 -25.072,74.282 z"
         id="path26"
         inkscape:connector-curvature="0" /><path
         d="m 402.269,288.228 c 27.721,0 54.975,0 82.18,0 0.529,1.815 0.674,27.129 0.221,30.226 -1.717,0.447 -110.38,0.633 -114.308,0.195 -0.515,-1.655 -0.658,-174.488 -0.118,-177.5 10.561,0 21.148,0 32.025,0 0,48.971 0,97.865 0,147.079 z"
         id="path28"
         inkscape:connector-curvature="0" /><path
         d="m 782.219,337.793 c 0.933,0 1.722,0 2.511,0 9.836,0 19.672,0 29.508,0 0.4,0 0.801,0.01 1.2,0.003 1.469,-0.024 2.288,0.637 2.776,2.085 2.041,6.056 4.188,12.076 6.3,18.108 3.88,11.085 7.762,22.169 11.641,33.254 0.209,0.601 0.395,1.207 0.684,2.099 -9.26,4.124 -18.598,7.975 -28.078,12.022 -3.137,-9.231 -6.208,-18.273 -9.279,-27.315 -0.16,0.002 -0.319,0.004 -0.479,0.007 -0.341,0.94 -0.699,1.875 -1.018,2.823 -3.609,10.755 -7.24,21.503 -10.782,32.279 -0.494,1.503 -1.273,2.377 -2.728,2.999 -10.873,4.648 -21.713,9.377 -32.566,14.073 -0.639,0.275 -1.304,0.488 -2.42,0.9 10.99,-31.344 21.837,-62.28 32.73,-93.337 z"
         id="path30"
         inkscape:connector-curvature="0" /><path
         d="m 962.84,338.61 c -6.008,2.609 -12.015,5.216 -18.02,7.827 -15.76,6.851 -31.521,13.693 -47.271,20.571 -1.349,0.588 -2.676,0.915 -4.155,0.9 -5.435,-0.051 -10.868,-0.021 -16.262,-0.021 -0.571,-1.772 -0.784,-25.223 -0.31,-29.715 1.853,-0.519 80.922,-0.424 86.018,0.438 z"
         id="path32"
         inkscape:connector-curvature="0" /><path
         d="m 240.507,701.894 c -7.695,0 -15.436,0 -23.443,0 -1.844,-4.934 -3.706,-9.92 -5.66,-15.148 13.651,-6.014 27.221,-11.989 40.858,-17.996 0.057,1.767 -10.107,30.281 -11.755,33.144 z"
         id="path34"
         inkscape:connector-curvature="0" /></g></g></svg>