<?xml version="1.0" encoding="utf-8"?>
<svg xmlns="http://www.w3.org/2000/svg" fill="none" height="70" viewBox="0 0 71 70" width="71">
<path d="M49.8493 26.3943C49.8778 26.3444 49.9087 26.2992 49.9444 26.2541C52.032 23.1322 53.82 19.9676 53.82 16.5626C53.82 14.3799 52.9379 12.404 51.5112 10.9798C50.0822 9.55076 48.1064 8.66628 45.9237 8.66628C43.7386 8.66628 41.7652 9.54839 40.3409 10.975C38.9119 12.404 38.0274 14.3799 38.0274 16.5626C38.0274 20.6641 40.6191 24.4158 43.2083 28.1653C44.1475 29.523 45.0843 30.883 45.9236 32.2835C46.7606 30.883 47.6998 29.5254 48.6389 28.1653C49.0455 27.5757 49.4544 26.986 49.8515 26.3939L49.8493 26.3943ZM23.3428 30.0155C28.9946 31.7513 30.9325 34.9564 32.7677 37.9905C34.7317 41.2384 36.5578 44.2557 44.2256 44.2557C44.8985 44.2557 45.443 44.8002 45.443 45.4731C45.443 46.146 44.8985 46.6905 44.2256 46.6905C35.1879 46.6905 33.0197 43.1049 30.6848 39.2438C29.1465 36.6997 27.5225 34.0153 23.1188 32.5008C22.8977 32.9478 22.5815 33.3472 22.1939 33.6801C21.4426 34.3245 20.425 34.7215 19.3122 34.7215C18.2018 34.7215 17.1818 34.3245 16.4375 33.6825C15.6386 32.9954 15.1441 32.0372 15.1441 30.9672C15.1441 29.8973 15.6386 28.9367 16.4375 28.2519C17.1842 27.6099 18.2018 27.2129 19.3122 27.2129C20.4226 27.2129 21.4426 27.61 22.1868 28.2519C22.7384 28.7251 23.145 29.3314 23.3447 30.0138L23.3428 30.0155ZM53.085 25.8617C54.3595 25.8475 55.622 25.7143 56.8655 25.4314C58.7748 24.9986 60.6674 24.2116 62.5291 22.9657C63.0855 22.5924 63.8392 22.7422 64.2125 23.2986C64.3504 23.5055 64.417 23.7408 64.417 23.9739L64.4218 54.427C64.4218 54.893 64.1602 55.2972 63.775 55.5017C54.7994 61.4364 45.4573 58.1028 36.092 54.7551C26.5125 51.3336 16.9044 47.9025 8.20207 55.3471C7.69325 55.7822 6.92523 55.7228 6.49014 55.214C6.29518 54.9857 6.19769 54.7051 6.20007 54.4246L6.19531 23.9714C6.19531 23.5625 6.39741 23.1987 6.70889 22.9776C16.3955 14.7579 26.5697 18.3149 36.7128 21.9362C36.0209 20.229 35.5881 18.4529 35.5881 16.5555C35.5881 13.7094 36.746 11.1273 38.615 9.25374L38.6221 9.2466C40.4933 7.37776 43.0755 6.22217 45.919 6.22217C48.7651 6.22217 51.3473 7.38007 53.2208 9.24898L53.2279 9.25611C55.0968 11.1273 56.2524 13.7095 56.2524 16.553C56.2524 19.9436 54.8757 22.9564 53.0853 25.8543L53.085 25.8617ZM38.2842 25.0771L36.092 24.3044C26.6695 20.94 17.2179 17.5638 8.62994 24.5398V51.9592C17.798 45.6416 27.3683 49.0561 36.9101 52.4656C45.5388 55.5495 54.1456 58.6213 61.9849 53.7686V26.1112C60.4726 26.9029 58.9391 27.4521 57.3959 27.8017C55.4439 28.2439 53.4823 28.3675 51.5135 28.2605C51.2211 28.6885 50.9262 29.1165 50.6314 29.5445C49.3047 31.4681 47.9732 33.3916 47.0031 35.3318C46.7035 35.9309 45.9759 36.1735 45.3768 35.8739C45.1319 35.7526 44.9488 35.5576 44.8346 35.3318C43.8645 33.3916 42.5355 31.4656 41.2063 29.5445C40.1863 28.068 39.1663 26.5914 38.2818 25.0793L38.2842 25.0771ZM45.9214 11.8546C47.2196 11.8546 48.3966 12.3825 49.2477 13.2337C50.0989 14.0848 50.6268 15.2618 50.6268 16.56C50.6268 17.8582 50.0989 19.0352 49.2477 19.8863C48.3966 20.7375 47.2196 21.2654 45.9214 21.2654C44.6232 21.2654 43.4462 20.7375 42.5951 19.8863C41.7439 19.0352 41.216 17.8582 41.216 16.56C41.216 15.2618 41.7439 14.0848 42.5951 13.2337C43.4462 12.3825 44.6232 11.8546 45.9214 11.8546ZM47.5263 14.9551C47.1174 14.5462 46.5467 14.2918 45.9214 14.2918C45.2937 14.2918 44.7255 14.5462 44.3165 14.9551C43.9075 15.3641 43.6531 15.9348 43.6531 16.5601C43.6531 17.1877 43.9076 17.756 44.3165 18.165C44.7254 18.574 45.2937 18.8283 45.9214 18.8283C46.5467 18.8283 47.1174 18.5739 47.5263 18.165C47.9353 17.756 48.1897 17.1877 48.1897 16.5601C48.1897 15.9348 47.9353 15.3641 47.5263 14.9551ZM20.606 30.0986C20.285 29.8228 19.8262 29.6516 19.3102 29.6516C18.7942 29.6516 18.3353 29.8228 18.0143 30.0986C17.7457 30.3293 17.5792 30.6384 17.5792 30.9689C17.5792 31.2994 17.748 31.6085 18.0167 31.8415C18.3377 32.1149 18.7942 32.2861 19.3102 32.2861C19.8261 32.2861 20.2827 32.1149 20.6036 31.8415C20.8747 31.6085 21.0411 31.2994 21.0411 30.9689C21.0411 30.6384 20.8747 30.3292 20.606 30.0986ZM52.8566 42.2437C53.3773 41.8205 54.1405 41.8989 54.5638 42.4197C54.987 42.9404 54.9085 43.7036 54.3878 44.1268L52.9588 45.2847L54.3878 46.4426C54.9085 46.8659 54.987 47.6315 54.5638 48.1498C54.1405 48.6705 53.3749 48.749 52.8566 48.3258L51.0329 46.8468L49.2092 48.3258C48.6885 48.749 47.9253 48.6705 47.502 48.1498C47.0788 47.6291 47.1573 46.8659 47.678 46.4426L49.107 45.2847L47.678 44.1268C47.1573 43.7036 47.0788 42.938 47.502 42.4197C47.9253 41.8989 48.6909 41.8205 49.2092 42.2437L51.0329 43.7226L52.8566 42.2437Z" fill="#379C8A"/>
</svg>