<svg width="100" height="39" viewBox="0 0 100 39" fill="none" xmlns="http://www.w3.org/2000/svg">
<path d="M7.54366 32.6173H5.78851V38.0943H4.60432V32.6173H2.72229V31.6446H7.83971L7.54366 32.6173Z" fill="#777777"/>
<path d="M11.4135 38.0943V35.3875C11.4135 34.8589 11.3289 34.3725 10.7157 34.3725C10.1024 34.3725 9.9121 34.6051 9.5949 34.8589V38.0731H8.41071V31.1371H9.5949V33.9284C10.0178 33.5689 10.5253 33.3152 11.1386 33.3152C11.7518 33.3152 12.6188 33.6535 12.6188 35.028V38.052H11.4135" fill="#777777"/>
<path d="M14.6274 36.0853C14.6274 36.762 15.2195 37.2484 15.9385 37.2484C16.6575 37.2484 16.7421 37.1427 17.1438 36.9312L17.4187 37.6925C16.8901 38.0519 16.2768 38.2 15.727 38.2C14.1199 38.2 13.4221 37.0158 13.4221 35.7893C13.4221 34.5628 14.2045 33.3786 15.5367 33.3786C16.8689 33.3786 17.6091 34.3302 17.6091 35.7681V36.1065H14.6274M15.4944 34.2245C14.9235 34.2245 14.5851 34.732 14.5851 35.2395H16.3826C16.3826 34.7531 16.0865 34.2245 15.4944 34.2245Z" fill="#777777"/>
<path d="M26.1102 32.6173H24.3339V38.0943H23.1497V32.6173H21.2677V31.6446H26.3851L26.1102 32.6173Z" fill="#777777"/>
<path d="M28.9435 34.5417C28.7532 34.4148 28.5417 34.3936 28.3937 34.3936C28.0976 34.3936 27.8439 34.4994 27.4844 34.7954V38.0731H26.3002V33.442H27.2941L27.421 33.9284C27.8862 33.5055 28.2457 33.3363 28.6897 33.3363C29.1338 33.3363 29.1761 33.3997 29.3664 33.5266L28.9435 34.5417Z" fill="#777777"/>
<path d="M32.7288 38.0943L32.5385 37.6925C32.2425 37.9674 31.8195 38.2 31.2063 38.2C30.593 38.2 29.6837 37.629 29.6837 36.7197C29.6837 35.8105 30.445 35.2395 31.6292 35.1972H32.4539V35.0492C32.4539 34.4782 32.0521 34.2668 31.5446 34.2668C31.0371 34.2668 30.6776 34.4359 30.3816 34.6051L30.0009 33.865C30.6142 33.4632 31.1851 33.3575 31.8195 33.3575C32.9614 33.3575 33.6593 33.8227 33.6593 35.0492V36.8889C33.6593 37.5656 33.6804 37.9039 33.7438 38.1154H32.7288M32.4328 35.9585H31.7561C31.1217 36.0008 30.8256 36.2122 30.8256 36.614C30.8256 37.0158 31.1006 37.2484 31.5869 37.2484C32.0733 37.2484 32.2636 37.1004 32.4116 36.9524V35.9585H32.4328Z" fill="#777777"/>
<path d="M37.0851 38.1154H36.2393L34.3361 33.4632H35.5203L36.6622 36.614H36.6834L37.8676 33.4632H39.0306L37.0851 38.1154Z" fill="#777777"/>
<path d="M40.4472 36.0853C40.4683 36.762 41.0393 37.2484 41.7583 37.2484C42.4772 37.2484 42.5618 37.1427 42.9636 36.9312L43.2385 37.6925C42.7099 38.0519 42.0966 38.2 41.5468 38.2C39.9397 38.2 39.2419 37.0158 39.2419 35.7893C39.2419 34.5628 40.0243 33.3786 41.3565 33.3786C42.6887 33.3786 43.4288 34.3302 43.4288 35.7681V36.1065H40.4472M41.3353 34.2245C40.7644 34.2245 40.426 34.732 40.426 35.2395H42.2235C42.2023 34.7531 41.9274 34.2245 41.3353 34.2245Z" fill="#777777"/>
<path d="M45.4166 38.1789C44.6342 38.1789 44.3593 37.7348 44.3593 37.1638V31.1583H45.5435V36.6563C45.5435 36.9947 45.6069 37.1427 45.8606 37.1427C46.1144 37.1427 46.0298 37.1427 46.199 37.1004L46.347 37.9674C45.9875 38.1366 45.6703 38.1789 45.4166 38.1789Z" fill="#777777"/>
<path d="M54.8477 38.0942L54.2133 36.4871H51.9084L51.3163 38.0942H50.1321L52.6485 31.6234H53.5155L56.1165 38.0942H54.8477ZM53.3252 34.0341C53.1983 33.7169 53.1349 33.442 53.0714 33.2306C53.0291 33.4632 52.9445 33.7169 52.8388 34.013L52.289 35.5144H53.8538L53.3252 34.0341Z" fill="#777777"/>
<path d="M58.2736 38.1788C57.5123 38.1788 56.9414 37.9885 56.5607 37.7559L56.9414 36.8889C57.2797 37.1215 57.7238 37.2907 58.189 37.2907C58.6542 37.2907 58.9926 37.1215 58.9926 36.8043C58.9926 35.9796 56.8568 36.2757 56.8568 34.7108C56.8568 33.146 57.4912 33.3363 58.6119 33.3363C59.7327 33.3363 59.5847 33.4209 59.9653 33.5689V34.5417C59.5847 34.3937 59.1617 34.2456 58.6542 34.2456C58.1467 34.2456 57.9987 34.3725 57.9987 34.6474C57.9987 35.3875 60.1768 35.1338 60.1768 36.7409C60.1768 37.7771 59.2886 38.1788 58.2736 38.1788Z" fill="#777777"/>
<path d="M62.5874 38.1788C61.8261 38.1788 61.2551 37.9885 60.8745 37.7559L61.2551 36.8889C61.5935 37.1215 62.0376 37.2907 62.5028 37.2907C62.968 37.2907 63.3063 37.1215 63.3063 36.8043C63.3063 35.9796 61.1706 36.2757 61.1706 34.7108C61.1706 33.146 61.805 33.3363 62.9257 33.3363C64.0465 33.3363 63.8984 33.4209 64.2791 33.5689V34.5417C63.8773 34.3937 63.4755 34.2456 62.968 34.2456C62.4605 34.2456 62.3125 34.3725 62.3125 34.6474C62.3125 35.3875 64.4905 35.1338 64.4905 36.7409C64.4905 37.7771 63.5812 38.1788 62.5874 38.1788Z" fill="#777777"/>
<path d="M72.9069 38.1788C71.4056 38.1788 70.6231 37.1004 70.6231 35.7893C70.6231 34.4782 71.6382 33.3363 73.0127 33.3363C74.3872 33.3363 74.07 33.4843 74.3449 33.6535V34.6051C74.0066 34.3513 73.6471 34.2245 73.1607 34.2245C72.3783 34.2245 71.8073 34.8588 71.8073 35.7047C71.8073 36.5506 72.2303 37.2061 73.1607 37.2061C74.0911 37.2061 73.9431 37.0792 74.2603 36.8889L74.5564 37.6713C74.1757 37.9462 73.5413 38.1788 72.9069 38.1788Z" fill="#777777"/>
<path d="M76.1424 32.7443C75.7407 32.7443 75.4235 32.4271 75.4235 32.0253C75.4235 31.6235 75.7407 31.3274 76.1424 31.3274C76.5442 31.3274 76.8826 31.6446 76.8826 32.0253C76.8826 32.4059 76.5654 32.7443 76.1424 32.7443ZM76.7345 38.0943H75.5503V33.4632H76.7345V38.0943Z" fill="#777777"/>
<path d="M80.8367 38.0943L80.6464 37.6925C80.3504 37.9674 79.9274 38.2 79.3142 38.2C78.701 38.2 77.7917 37.629 77.7917 36.7197C77.7917 35.8105 78.5529 35.2395 79.7371 35.1972H80.5618V35.0492C80.5618 34.4782 80.16 34.2668 79.6525 34.2668C79.145 34.2668 78.7855 34.4359 78.4895 34.6051L78.1089 33.865C78.7221 33.4632 79.293 33.3575 79.9274 33.3575C81.0693 33.3575 81.7672 33.8227 81.7672 35.0492V36.8889C81.7672 37.5656 81.7883 37.9039 81.8518 38.1154H80.8367M80.5407 35.9585H79.8851C79.2508 36.0008 78.9547 36.2122 78.9547 36.614C78.9547 37.0158 79.2296 37.2484 79.716 37.2484C80.2023 37.2484 80.3927 37.1004 80.5407 36.9524V35.9585Z" fill="#777777"/>
<path d="M84.6007 38.1789C83.6914 38.1789 83.3742 37.7136 83.3742 37.1004V34.3302H82.5495V33.4421H83.3742V32.3848L84.5584 32.0253V33.4421H85.9964L85.658 34.3302H84.5584V36.6986C84.5584 37.0581 84.7064 37.2273 85.0025 37.2273C85.2985 37.2273 85.5946 37.1004 85.7849 37.0158L86.1021 37.7771C85.658 38.0731 85.0659 38.1789 84.6007 38.1789Z" fill="#777777"/>
<path d="M87.6672 32.7443C87.2654 32.7443 86.9482 32.4271 86.9482 32.0253C86.9482 31.6235 87.2654 31.3274 87.6672 31.3274C88.069 31.3274 88.4073 31.6446 88.4073 32.0253C88.4073 32.4059 88.069 32.7443 87.6672 32.7443ZM88.2593 38.0943H87.0751V33.4632H88.2593V38.0943Z" fill="#777777"/>
<path d="M93.2072 37.5233C92.8054 37.9462 92.2345 38.1788 91.5366 38.1788C90.8388 38.1788 90.3524 37.9674 89.9507 37.6079C89.4854 37.1849 89.2317 36.5506 89.2317 35.7893C89.2317 35.028 89.4854 34.4359 89.9084 33.9918C90.3101 33.5901 90.8811 33.3363 91.5578 33.3363C92.2345 33.3363 92.8477 33.5901 93.2706 33.9918C93.6724 34.4148 93.8839 35.028 93.8839 35.7258C93.8627 36.466 93.6301 37.0792 93.2072 37.5233ZM91.5155 34.2879C90.7754 34.2879 90.4159 34.9223 90.4159 35.7681C90.4159 36.614 90.8388 37.2695 91.5578 37.2695C92.2768 37.2695 92.6574 36.6351 92.6574 35.7681C92.6574 34.9011 92.2345 34.2879 91.5155 34.2879Z" fill="#777777"/>
<path d="M69.2483 37.5233C68.8466 37.9462 68.2756 38.1788 67.5778 38.1788C66.88 38.1788 66.3724 37.9674 65.9918 37.6079C65.5266 37.1849 65.2728 36.5506 65.2728 35.7893C65.2728 35.028 65.5266 34.4359 65.9495 33.9918C66.3513 33.5901 66.9222 33.3363 67.5989 33.3363C68.2756 33.3363 68.8889 33.5901 69.3118 33.9918C69.7136 34.4148 69.925 35.028 69.925 35.7258C69.9039 36.466 69.6924 37.0792 69.2483 37.5233ZM67.5566 34.2879C66.8165 34.2879 66.457 34.9223 66.457 35.7681C66.457 36.614 66.88 37.2695 67.5989 37.2695C68.3179 37.2695 68.6985 36.6351 68.6985 35.7681C68.6985 34.9011 68.2968 34.2879 67.5566 34.2879Z" fill="#777777"/>
<path d="M97.6269 38.0942V35.3664C97.6269 34.88 97.5423 34.3513 96.9502 34.3513C96.3581 34.3513 96.1255 34.5628 95.766 34.8377V38.0731H94.5818V33.442H95.5757L95.7026 33.9496C96.2101 33.5689 96.6965 33.3363 97.3308 33.3363C97.9652 33.3363 98.7899 33.7592 98.7899 35.0069V38.0731H97.6269" fill="#777777"/>
<path d="M13.6338 0.199997C13.2108 0.199997 12.7879 0.221144 12.365 0.263437V2.44151V26.3158V27.1616C12.7879 27.2039 13.2108 27.225 13.6338 27.225C21.0984 27.225 27.1674 21.1772 27.1674 13.7125C27.1463 6.24786 21.0984 0.199997 13.6338 0.199997ZM18.582 14.939C18.5186 15.806 18.4128 16.6519 18.2437 17.4554H15.0717V14.939H18.582ZM15.0717 12.4226V9.90618H18.2225C18.3917 10.7309 18.5186 11.5767 18.5609 12.4226H15.0717ZM21.2253 14.939H24.3973C24.2915 15.806 24.1012 16.6519 23.8052 17.4554H20.887C21.0561 16.6519 21.183 15.806 21.2253 14.939ZM21.2253 12.4226C21.1619 11.5556 21.035 10.7097 20.8658 9.90618H23.784C24.0801 10.7097 24.2915 11.5556 24.3973 12.4226H21.2253ZM22.4307 7.36862H20.1468C19.7028 6.14213 19.1107 5.02137 18.434 3.9852C20.02 4.76761 21.3945 5.93066 22.4307 7.36862ZM17.5036 7.36862H15.0717V2.97017C16.0656 4.2601 16.8903 5.74035 17.5036 7.36862ZM15.0717 24.4549V19.993H17.5247C16.9326 21.6424 16.0867 23.1438 15.0717 24.4549ZM18.4551 23.4187C19.153 22.3825 19.7239 21.2195 20.1891 19.993H22.4729C21.4368 21.4521 20.0623 22.6363 18.4551 23.4187Z" fill="#777777"/>
<path d="M57.1953 25.5967H50.0901V3.22391H57.0896C61.6149 3.22391 63.6872 6.31127 63.6872 9.018C63.6872 11.7247 62.7991 12.5917 61.0016 13.6702V13.7336C63.5815 14.3046 65.1463 16.102 65.1463 18.8299C65.1463 21.5578 62.8414 25.5967 57.1953 25.5967ZM56.5186 6.69191H54.2137V12.5283H56.3917C58.2315 12.5283 59.5848 11.3441 59.5848 9.48322C59.5848 7.62235 58.4852 6.69191 56.5186 6.69191ZM57.301 15.954H54.2137V22.1499H56.8358C59.5848 22.1499 60.9382 20.9234 60.9382 18.8933C60.9382 16.8633 59.606 15.954 57.301 15.954Z" fill="#777777"/>
<path d="M81.6404 6.67076H75.6772V25.5967H71.5325V6.67076H65.0406V3.22391H82.9727L81.6404 6.67076Z" fill="#777777"/>
<path d="M43.8516 25.5967L41.6313 19.9929H33.6379L31.5656 25.5967H27.442L36.0909 3.22391H39.1994L48.1655 25.5967H43.8516ZM38.5439 11.4921C38.1421 10.3714 37.8672 9.46208 37.698 8.72195H37.6557C37.5289 9.50437 37.2117 10.3925 36.8522 11.4287L34.9067 16.6307H40.3625L38.5439 11.4921Z" fill="#777777"/>
<path d="M95.1317 25.5967L92.9114 19.9929H84.9181L82.8457 25.5967H78.7433L87.3922 3.22391H90.4795L99.4456 25.5967H95.1317ZM89.824 11.4921C89.4222 10.3714 89.1473 9.46208 88.9782 8.72195H88.9359C88.809 9.50437 88.4918 10.3925 88.1112 11.4287L86.1657 16.6307H91.6214L89.824 11.4921Z" fill="#777777"/>
<path d="M11.0749 11.1538V10.1177L4.60416 3.64688C4.24468 3.96407 3.90633 4.30241 3.56799 4.6619L10.0599 11.1538H11.0749Z" fill="#777777"/>
<path d="M11.0749 16.1866V17.2017L4.60416 23.6725C4.24468 23.3553 3.90633 23.0169 3.56799 22.6574L10.0599 16.1866H11.0749Z" fill="#777777"/>
<path d="M11.075 12.4437H0.163445C0.121152 12.8666 0.100006 13.2684 0.100006 13.7125C0.100006 14.1566 0.121152 14.5584 0.163445 14.9813H11.075V12.4437Z" fill="#777777"/>
<path d="M2.87033 5.55005C1.64384 7.17831 0.755696 9.08149 0.375061 11.175H8.49527L2.87033 5.55005Z" fill="#777777"/>
<path d="M11.0751 8.57395V0.453747C9.00272 0.855527 7.0784 1.72253 5.45013 2.94902L11.0751 8.57395Z" fill="#777777"/>
<path d="M5.47101 24.3914C7.09928 25.6179 9.00245 26.5061 11.0959 26.8867V18.7665L5.47101 24.3914Z" fill="#777777"/>
<path d="M8.49527 16.1866H0.375061C0.776842 18.259 1.64384 20.1833 2.87033 21.8116L8.49527 16.1866Z" fill="#777777"/>
</svg>
