<?xml version="1.0" encoding="utf-8"?>
<svg xmlns="http://www.w3.org/2000/svg" fill="none" height="73" viewBox="0 0 71 73" width="71">
<mask height="39" id="mask0_1193_3424" maskUnits="userSpaceOnUse" style="mask-type:alpha" width="65" x="5" y="21">
<path d="M69.4365 59.5005H5.43652V21.4995H24.2178C24.3581 22.0321 24.5294 22.533 24.7295 23.0063C25.3291 24.4248 26.1212 25.4506 26.7891 26.2251C28.3047 27.9826 28.3428 27.9336 28.3428 28.4399V31.4019C28.3428 33.0918 29.1038 34.6502 30.3477 35.6851C31.5152 38.0217 33.7759 39.3431 36.1572 39.3433C38.5386 39.3433 40.7997 38.0219 41.9668 35.6851C43.2115 34.6498 43.9717 33.0907 43.9717 31.4019V28.4399C43.9717 27.9336 44.0089 27.9824 45.5244 26.2251C46.1923 25.4506 46.9843 24.4248 47.584 23.0063C47.784 22.5331 47.9552 22.0321 48.0957 21.4995H69.4365V59.5005Z" fill="#D9D9D9"/>
</mask>
<g mask="url(#mask0_1193_3424)">
<path d="M48.1543 26.0181C50.4438 26.0181 52.6723 26.4632 54.6943 27.2905L54.7051 27.2954C55.6248 27.6614 56.1825 28.1027 56.7256 28.6616C57.017 28.9616 57.2908 29.2802 57.6387 29.6743C57.9466 30.0232 58.2949 30.4078 58.708 30.8169L58.7539 30.9722L64.3633 49.7876C63.9767 49.5849 63.5616 49.4041 63.1523 49.2437C62.2391 48.8856 61.1772 48.5556 60.1348 48.2563C59.0972 47.9585 58.0232 47.676 57.1289 47.4292C56.2008 47.1731 55.484 46.9599 55.0498 46.7847L55.0469 46.7837L54.6455 46.6284C52.627 45.8742 50.4364 45.4546 48.1611 45.4546C45.7309 45.4546 43.4027 45.9319 41.2744 46.7837L41.2715 46.7847C39.2254 47.6104 37.321 48.7934 35.6943 50.2544H35.5674C33.9408 48.7935 32.0371 47.6104 29.9912 46.7847L29.9873 46.7837L29.5859 46.6284C27.5674 45.8742 25.3768 45.4546 23.1016 45.4546C20.6713 45.4546 18.3431 45.9319 16.2148 46.7837L16.2119 46.7847C15.7777 46.9599 15.0609 47.1731 14.1328 47.4292C13.2387 47.6759 12.1653 47.9586 11.1279 48.2563C10.0855 48.5556 9.02364 48.8856 8.11035 49.2437C7.69064 49.4082 7.26406 49.5932 6.86914 49.8022L12.4834 30.9722L12.5303 30.8159C12.9426 30.4076 13.2909 30.0244 13.5986 29.6763C13.9466 29.2826 14.221 28.9634 14.5127 28.6636C14.9887 28.1743 15.4757 27.7747 16.2061 27.436L16.5342 27.2944L16.543 27.2905C18.565 26.4632 20.7936 26.0181 23.083 26.0181C25.2295 26.0181 27.3219 26.4095 29.2412 27.1401L29.6221 27.2905C31.5125 28.0651 33.2537 29.1357 34.7881 30.5015L35.6191 31.2407L36.4502 30.5015C37.9833 29.1369 39.7234 28.0689 41.6152 27.2905C43.6371 26.4633 45.865 26.0181 48.1543 26.0181Z" stroke="#CC5426" stroke-width="2.5"/>
<line stroke="#CC5426" stroke-width="2.5" x1="35.0229" x2="35.0229" y1="16.6782" y2="48.0643"/>
</g>
<path clip-rule="evenodd" d="M39.539 33.7096C38.4223 37.2216 33.8921 37.2216 32.774 33.7096C31.9177 33.2978 31.3419 32.4067 31.3419 31.4023V28.4401C31.3419 24.6393 26.7798 24.6336 26.7798 17.8653C26.7798 12.4535 30.9474 8.21338 36.1565 8.21338C41.3656 8.21338 45.5333 12.4535 45.5333 17.8653C45.5333 24.634 40.9712 24.6393 40.9712 28.4401V31.4023C40.9712 32.4081 40.3954 33.2992 39.539 33.7096Z" fill-rule="evenodd" stroke="#CC5426" stroke-width="2.5"/>
<path d="M32.2246 28.3066H40.2618" stroke="#CC5426" stroke-linecap="square" stroke-width="2.5"/>
<path d="M33.5654 32.3252L40.2631 32.3252" stroke="#CC5426" stroke-linecap="square" stroke-width="2.5"/>
<path d="M36.4355 27.833L36.4355 19.7958" stroke="#CC5426" stroke-linecap="round" stroke-width="2.5"/>
<path d="M36.1567 20.2695L33.4777 17.5905" stroke="#CC5426" stroke-linecap="round" stroke-width="2.5"/>
<path d="M36.1567 20.2695L38.8358 17.5905" stroke="#CC5426" stroke-linecap="round" stroke-width="2.5"/>
<path d="M50.3169 18.7056H53.4424" stroke="#CC5426" stroke-linecap="round" stroke-width="2.5"/>
<path d="M46.5337 9.32812L49.2405 7.76538" stroke="#CC5426" stroke-linecap="round" stroke-width="2.5"/>
<path d="M25.7993 9.32812L23.0925 7.76538" stroke="#CC5426" stroke-linecap="round" stroke-width="2.5"/>
<path d="M36.2495 4.64062L36.2495 1.51514" stroke="#CC5426" stroke-linecap="round" stroke-width="2.5"/>
<path d="M19.0605 18.7061H22.1861" stroke="#CC5426" stroke-linecap="round" stroke-width="2.5"/>
</svg>