<?xml version="1.0" encoding="utf-8"?>
<svg xmlns="http://www.w3.org/2000/svg" fill="none" height="73" viewBox="0 0 71 73" width="71">
<g clip-path="url(#clip0_1193_3491)">
<path d="M13.061 52.6237V40.1007C13.061 37.5261 14.4645 35.6234 16.9148 34.8825L29.3274 30.5249" stroke="#635478" stroke-linecap="round" stroke-width="2.55556"/>
<path d="M40.6631 30.3921L53.0826 34.752C55.5329 35.4929 56.9363 37.3933 56.9363 39.9701V52.4932" stroke="#635478" stroke-linecap="round" stroke-width="2.55556"/>
<path d="M32.8486 15.4087C33.1505 15.5561 33.4675 15.6879 33.7936 15.7991C35.0495 16.2257 36.4232 16.3394 37.7517 16.1326L40.0975 15.7655C40.2756 15.737 40.4568 15.7241 40.6319 15.7241C41.6675 15.7241 42.6457 16.1895 43.1861 16.9728C43.4578 17.3632 43.5997 17.813 43.5997 18.2681V18.4439V24.8761C43.5997 26.2748 43.014 27.6269 41.9452 28.6869L40.3089 30.313C39.0136 31.6005 37.1267 32.3399 35.1431 32.3399C33.1596 32.3399 31.2726 31.6005 29.9774 30.313L28.341 28.6869C27.2753 27.6269 26.6866 26.2748 26.6866 24.8761L26.6685 22.9371" stroke="#635478" stroke-linecap="round" stroke-linejoin="round" stroke-width="2.55556"/>
<path d="M24.644 9.95041L24.9938 7.85902C25.6196 4.10189 28.8383 1.37549 32.6461 1.37549H37.4915C41.2992 1.37549 44.518 4.10189 45.1438 7.85902L45.4935 9.94811" stroke="#635478" stroke-width="2.55556"/>
<path d="M23.879 21.4595C19.855 20.033 17.6348 17.9509 17.6348 15.5972C17.6348 12.995 20.3957 10.7012 25.2135 9.30691C28.1078 8.46714 31.5152 8.02539 35.0676 8.02539C38.62 8.02539 42.0251 8.46944 44.9218 9.30691C49.7372 10.7035 52.5004 12.995 52.5004 15.5972C52.5004 17.9509 49.4223 20.3906 46.2516 21.4618C45.5578 21.6962 45.1527 21.7932 44.428 21.8982" stroke="#635478" stroke-linecap="round" stroke-width="2.55556"/>
<path d="M35.7503 38.9566L37.3446 41.6569C37.4232 41.7916 37.5523 41.887 37.7039 41.9207L40.7635 42.6C41.1789 42.6954 41.3473 43.2007 41.061 43.5207L38.9839 45.8729C38.8828 45.9908 38.8323 46.1423 38.8435 46.2995L39.1411 49.4208C39.1804 49.8475 38.7537 50.1619 38.3607 49.9878L35.4808 48.7416C35.3405 48.6798 35.1777 48.6798 35.0317 48.7416L32.1518 49.9878C31.7588 50.1563 31.3266 49.8475 31.3715 49.4208L31.669 46.2995C31.6859 46.1423 31.6353 45.9908 31.5287 45.8729L29.4515 43.5207C29.1708 43.2007 29.3336 42.6954 29.7491 42.6L32.8086 41.9207C32.9602 41.887 33.0893 41.7916 33.1679 41.6569L34.7623 38.9566C34.9812 38.5861 35.5145 38.5861 35.7278 38.9566H35.7503Z" stroke="#635478" stroke-linecap="round" stroke-linejoin="round" stroke-width="2.55556"/>
</g>
<defs>
<clipPath id="clip0_1193_3491">
<rect fill="white" height="53.9997" transform="translate(11.6855)" width="46.6265"/>
</clipPath>
</defs>
</svg>