<?xml version="1.0" encoding="UTF-8"?>
<!-- Generator: Adobe Illustrator 23.0.3, SVG Export Plug-In . SVG Version: 6.00 Build 0)  -->
<svg xmlns="http://www.w3.org/2000/svg" xmlns:xlink="http://www.w3.org/1999/xlink" version="1.1" id="Layer_1" x="0px" y="0px" width="94.1px" height="45px" viewBox="0 0 94.1 45" style="enable-background:new 0 0 94.1 45;" xml:space="preserve">
<style type="text/css">
	.st0{clip-path:url(#SVGID_2_);}
	.st1{clip-path:url(#SVGID_9_);}
	.st2{clip-path:url(#SVGID_14_);}
	.st3{clip-path:url(#SVGID_15_);}
	.st4{clip-path:url(#SVGID_16_);fill:#777777;}
	.st5{clip-path:url(#SVGID_21_);}
	.st6{clip-path:url(#SVGID_26_);}
	.st7{clip-path:url(#SVGID_27_);}
	.st8{clip-path:url(#SVGID_28_);fill:#777777;}
	.st9{clip-path:url(#SVGID_33_);}
	.st10{clip-path:url(#SVGID_38_);}
	.st11{clip-path:url(#SVGID_39_);}
	.st12{clip-path:url(#SVGID_40_);fill:#777777;}
	.st13{clip-path:url(#SVGID_42_);}
	.st14{clip-path:url(#SVGID_44_);fill:#777777;}
	.st15{clip-path:url(#SVGID_46_);fill:#777777;}
	.st16{clip-path:url(#SVGID_48_);fill:#777777;}
	.st17{clip-path:url(#SVGID_50_);fill:#777777;}
	.st18{clip-path:url(#SVGID_52_);fill:#777777;}
	.st19{clip-path:url(#SVGID_54_);fill:#777777;}
	.st20{clip-path:url(#SVGID_56_);fill:#777777;}
	.st21{clip-path:url(#SVGID_58_);fill:#777777;}
	.st22{clip-path:url(#SVGID_60_);fill:#777777;}
	.st23{clip-path:url(#SVGID_62_);fill:#777777;}
	.st24{fill:#777777;}
</style>
<g>
	<g>
		<g>
			<g>
				<g>
					<defs>
						<rect id="SVGID_1_" width="94.1" height="29.6"></rect>
					</defs>
					<clipPath id="SVGID_2_">
						<use xlink:href="#SVGID_1_" style="overflow:visible;"></use>
					</clipPath>
					<g class="st0">
						<g>
							<g>
								<g>
									<defs>
										<rect id="SVGID_3_" y="-0.1" width="94.1" height="29.8"></rect>
									</defs>
									<clipPath id="SVGID_4_">
										<use xlink:href="#SVGID_3_" style="overflow:visible;"></use>
									</clipPath>
								</g>
							</g>
							<g>
								<g>
									<defs>
										<rect id="SVGID_5_" y="-0.1" width="94.1" height="29.8"></rect>
									</defs>
									<clipPath id="SVGID_6_">
										<use xlink:href="#SVGID_5_" style="overflow:visible;"></use>
									</clipPath>
								</g>
								<g>
									<defs>
										<rect id="SVGID_7_" y="-0.1" width="94.1" height="29.8"></rect>
									</defs>
									<defs>
										<rect id="SVGID_8_" y="-0.1" width="94.1" height="29.8"></rect>
									</defs>
									<clipPath id="SVGID_9_">
										<use xlink:href="#SVGID_7_" style="overflow:visible;"></use>
									</clipPath>
									<clipPath id="SVGID_10_" class="st1">
										<use xlink:href="#SVGID_8_" style="overflow:visible;"></use>
									</clipPath>
								</g>
								<g>
									<defs>
										<rect id="SVGID_11_" y="-0.1" width="94.1" height="29.8"></rect>
									</defs>
									<defs>
										<rect id="SVGID_12_" y="-0.1" width="94.1" height="29.8"></rect>
									</defs>
									<defs>
										<rect id="SVGID_13_" y="-0.1" width="94.1" height="29.8"></rect>
									</defs>
									<clipPath id="SVGID_14_">
										<use xlink:href="#SVGID_11_" style="overflow:visible;"></use>
									</clipPath>
									<clipPath id="SVGID_15_" class="st2">
										<use xlink:href="#SVGID_12_" style="overflow:visible;"></use>
									</clipPath>
									<clipPath id="SVGID_16_" class="st3">
										<use xlink:href="#SVGID_13_" style="overflow:visible;"></use>
									</clipPath>
									<polyline class="st4" points="80,7.3 86.4,7.3 86.4,13.6 87.6,13.6 87.6,7.3 94.1,7.3 94.1,6.2 87.6,6.2 87.6,0 86.4,0            86.4,6.2 80,6.2 80,7.3          "></polyline>
								</g>
							</g>
							<g>
								<g>
									<defs>
										<rect id="SVGID_17_" y="-0.1" width="94.1" height="29.8"></rect>
									</defs>
									<clipPath id="SVGID_18_">
										<use xlink:href="#SVGID_17_" style="overflow:visible;"></use>
									</clipPath>
								</g>
								<g>
									<defs>
										<rect id="SVGID_19_" y="-0.1" width="94.1" height="29.8"></rect>
									</defs>
									<defs>
										<rect id="SVGID_20_" y="-0.1" width="94.1" height="29.8"></rect>
									</defs>
									<clipPath id="SVGID_21_">
										<use xlink:href="#SVGID_19_" style="overflow:visible;"></use>
									</clipPath>
									<clipPath id="SVGID_22_" class="st5">
										<use xlink:href="#SVGID_20_" style="overflow:visible;"></use>
									</clipPath>
								</g>
								<g>
									<defs>
										<rect id="SVGID_23_" y="-0.1" width="94.1" height="29.8"></rect>
									</defs>
									<defs>
										<rect id="SVGID_24_" y="-0.1" width="94.1" height="29.8"></rect>
									</defs>
									<defs>
										<rect id="SVGID_25_" y="-0.1" width="94.1" height="29.8"></rect>
									</defs>
									<clipPath id="SVGID_26_">
										<use xlink:href="#SVGID_23_" style="overflow:visible;"></use>
									</clipPath>
									<clipPath id="SVGID_27_" class="st6">
										<use xlink:href="#SVGID_24_" style="overflow:visible;"></use>
									</clipPath>
									<clipPath id="SVGID_28_" class="st7">
										<use xlink:href="#SVGID_25_" style="overflow:visible;"></use>
									</clipPath>
									<path class="st8" d="M57,29.6c-3.7,0-6.2-2.1-6.2-5.3v-8.6h3.3v8.6c0,1.8,1.6,2.5,2.9,2.5c1.8,0,3-1,3-2.5v-8.6h3.3v8.6           C63.3,27.5,60.8,29.6,57,29.6"></path>
								</g>
							</g>
							<g>
								<g>
									<defs>
										<rect id="SVGID_29_" y="-0.1" width="94.1" height="29.8"></rect>
									</defs>
									<clipPath id="SVGID_30_">
										<use xlink:href="#SVGID_29_" style="overflow:visible;"></use>
									</clipPath>
								</g>
								<g>
									<defs>
										<rect id="SVGID_31_" y="-0.1" width="94.1" height="29.8"></rect>
									</defs>
									<defs>
										<rect id="SVGID_32_" y="-0.1" width="94.1" height="29.8"></rect>
									</defs>
									<clipPath id="SVGID_33_">
										<use xlink:href="#SVGID_31_" style="overflow:visible;"></use>
									</clipPath>
									<clipPath id="SVGID_34_" class="st9">
										<use xlink:href="#SVGID_32_" style="overflow:visible;"></use>
									</clipPath>
								</g>
								<g>
									<defs>
										<rect id="SVGID_35_" y="-0.1" width="94.1" height="29.8"></rect>
									</defs>
									<defs>
										<rect id="SVGID_36_" y="-0.1" width="94.1" height="29.8"></rect>
									</defs>
									<defs>
										<rect id="SVGID_37_" y="-0.1" width="94.1" height="29.8"></rect>
									</defs>
									<clipPath id="SVGID_38_">
										<use xlink:href="#SVGID_35_" style="overflow:visible;"></use>
									</clipPath>
									<clipPath id="SVGID_39_" class="st10">
										<use xlink:href="#SVGID_36_" style="overflow:visible;"></use>
									</clipPath>
									<clipPath id="SVGID_40_" class="st11">
										<use xlink:href="#SVGID_37_" style="overflow:visible;"></use>
									</clipPath>
									<path class="st12" d="M42.5,29.6c-2.8,0-5.2-0.9-7.4-2.7L35,26.9l1.9-2.3l0.1,0.1c1.3,1,3.1,2.2,5.6,2.2           c1.3,0,2.8-0.4,2.8-1.7c0-1.1-1.1-1.4-3.2-1.5c-2.6-0.2-6.5-0.4-6.5-4c0-3.2,2.9-4.4,5.6-4.4c2.7,0,5.1,1,6.3,1.8l0.2,0.1           l-1.9,2.3l-0.1-0.1c-0.4-0.3-2-1.4-4.5-1.4c-1.1,0-2.3,0.4-2.3,1.4c0,1,1.5,1.1,3,1.2l0.2,0c2.4,0.2,6.3,0.4,6.3,4.3           C48.6,27.9,46.4,29.6,42.5,29.6"></path>
								</g>
							</g>
						</g>
					</g>
				</g>
			</g>
			<g>
				<g>
					<defs>
						<rect id="SVGID_41_" width="94.1" height="29.6"></rect>
					</defs>
					<clipPath id="SVGID_42_">
						<use xlink:href="#SVGID_41_" style="overflow:visible;"></use>
					</clipPath>
					<g class="st13">
						<g>
							<g>
								<g>
									<defs>
										<rect id="SVGID_43_" y="-0.1" width="94.1" height="29.8"></rect>
									</defs>
									<clipPath id="SVGID_44_">
										<use xlink:href="#SVGID_43_" style="overflow:visible;"></use>
									</clipPath>
									<polyline class="st14" points="93.7,29.2 81.9,29.2 81.9,15.7 93.3,15.7 93.3,18.5 85.2,18.5 85.2,20.7 90,20.7 90,23.6            85.2,23.6 85.2,26.4 93.7,26.4 93.7,29.2          "></polyline>
								</g>
							</g>
						</g>
						<g>
							<g>
								<g>
									<defs>
										<rect id="SVGID_45_" y="-0.1" width="94.1" height="29.8"></rect>
									</defs>
									<clipPath id="SVGID_46_">
										<use xlink:href="#SVGID_45_" style="overflow:visible;"></use>
									</clipPath>
									<rect x="29.4" y="15.7" class="st15" width="3.3" height="13.6"></rect>
								</g>
							</g>
						</g>
						<g>
							<g>
								<g>
									<defs>
										<rect id="SVGID_47_" y="-0.1" width="94.1" height="29.8"></rect>
									</defs>
									<clipPath id="SVGID_48_">
										<use xlink:href="#SVGID_47_" style="overflow:visible;"></use>
									</clipPath>
									<polyline class="st16" points="26.7,29.2 14.8,29.2 14.8,15.7 26.2,15.7 26.2,18.5 18.1,18.5 18.1,20.7 23,20.7 23,23.6            18.1,23.6 18.1,26.4 26.7,26.4 26.7,29.2          "></polyline>
								</g>
							</g>
						</g>
						<g>
							<g>
								<g>
									<defs>
										<rect id="SVGID_49_" y="-0.1" width="94.1" height="29.8"></rect>
									</defs>
									<clipPath id="SVGID_50_">
										<use xlink:href="#SVGID_49_" style="overflow:visible;"></use>
									</clipPath>
									<polyline class="st17" points="12.9,29.2 1.9,29.2 1.9,15.7 5.2,15.7 5.2,26.4 12.9,26.4 12.9,29.2          "></polyline>
								</g>
							</g>
						</g>
						<g>
							<g>
								<g>
									<defs>
										<rect id="SVGID_51_" y="-0.1" width="94.1" height="29.8"></rect>
									</defs>
									<clipPath id="SVGID_52_">
										<use xlink:href="#SVGID_51_" style="overflow:visible;"></use>
									</clipPath>
									<path class="st18" d="M74.2,21.6h-4.6v-3.1H74c0.5,0,1,0.1,1.5,0.5c0.3,0.3,0.4,0.6,0.4,1C75.9,20.9,75.2,21.6,74.2,21.6            M76.5,23.8c1.7-0.8,2.6-2.2,2.6-3.8c0-1.1-0.4-2.1-1.1-2.9c-1-1-2.3-1.5-4.1-1.5h-7.5v13.6h3.2v-4.9h3.7l2.7,4.9h3.7           L76.5,23.8z"></path>
								</g>
							</g>
						</g>
						<g>
							<g>
								<g>
									<defs>
										<rect id="SVGID_53_" y="-0.1" width="94.1" height="29.8"></rect>
									</defs>
									<clipPath id="SVGID_54_">
										<use xlink:href="#SVGID_53_" style="overflow:visible;"></use>
									</clipPath>
									<polyline class="st19" points="82.7,13.6 71.7,13.6 71.7,0 74.9,0 74.9,10.7 82.7,10.7 82.7,13.6          "></polyline>
								</g>
							</g>
						</g>
						<g>
							<g>
								<g>
									<defs>
										<rect id="SVGID_55_" y="-0.1" width="94.1" height="29.8"></rect>
									</defs>
									<clipPath id="SVGID_56_">
										<use xlink:href="#SVGID_55_" style="overflow:visible;"></use>
									</clipPath>
									<polyline class="st20" points="69.4,13.6 57.6,13.6 57.6,0 69,0 69,2.9 60.9,2.9 60.9,5.1 65.8,5.1 65.8,7.9 60.9,7.9            60.9,10.7 69.4,10.7 69.4,13.6          "></polyline>
								</g>
							</g>
						</g>
						<g>
							<g>
								<g>
									<defs>
										<rect id="SVGID_57_" y="-0.1" width="94.1" height="29.8"></rect>
									</defs>
									<clipPath id="SVGID_58_">
										<use xlink:href="#SVGID_57_" style="overflow:visible;"></use>
									</clipPath>
									<polyline class="st21" points="50.1,13.6 47.3,13.6 41,0 44.7,0 48.7,9.5 52.8,0 56.3,0 50.1,13.6          "></polyline>
								</g>
							</g>
						</g>
						<g>
							<g>
								<g>
									<defs>
										<rect id="SVGID_59_" y="-0.1" width="94.1" height="29.8"></rect>
									</defs>
									<clipPath id="SVGID_60_">
										<use xlink:href="#SVGID_59_" style="overflow:visible;"></use>
									</clipPath>
									<polyline class="st22" points="8,13.6 4.8,13.6 4.8,2.9 0,2.9 0,0 12.8,0 12.8,2.9 8,2.9 8,13.6          "></polyline>
								</g>
							</g>
						</g>
						<g>
							<g>
								<g>
									<defs>
										<rect id="SVGID_61_" y="-0.1" width="94.1" height="29.8"></rect>
									</defs>
									<clipPath id="SVGID_62_">
										<use xlink:href="#SVGID_61_" style="overflow:visible;"></use>
									</clipPath>
									<path class="st23" d="M34.3,8.2L36.1,4l1.8,4.2H34.3 M37.5,0h-2.7l-6.3,13.6H32l1.2-2.8H39l1.2,2.8h3.6L37.5,0z"></path>
								</g>
							</g>
						</g>
						<g>
							<g>
								<path class="st24" d="M22.2,5.9h-4.6V2.8H22c0.5,0,1,0.1,1.4,0.5c0.3,0.3,0.4,0.6,0.4,1C23.9,5.3,23.2,5.9,22.2,5.9           M24.5,8.2c1.7-0.8,2.6-2.2,2.6-3.8c0-1.1-0.4-2.1-1.1-2.9c-1-1-2.3-1.5-4.1-1.5h-7.5v13.6h3.2V8.7h3.6l2.7,4.8h3.7          L24.5,8.2z"></path>
							</g>
						</g>
					</g>
				</g>
			</g>
		</g>
	</g>
	<g>
		<path class="st24" d="M0.2,44.8l2-4.4c0,0,0.1-0.1,0.1-0.1h0.1c0.1,0,0.1,0,0.1,0.1l2,4.4c0,0.1,0,0.2-0.1,0.2H3.9    c-0.1,0-0.1,0-0.2-0.1l-0.3-0.7H1.4l-0.3,0.7c0,0.1-0.1,0.1-0.2,0.1H0.3C0.2,44.9,0.2,44.8,0.2,44.8z M3,43.4L2.4,42h0l-0.6,1.4H3    z"></path>
		<path class="st24" d="M5.5,43.6v-0.4c0-0.1,0.1-0.1,0.1-0.1h1.5c0.1,0,0.1,0.1,0.1,0.1v0.4c0,0.1-0.1,0.1-0.1,0.1H5.6    C5.6,43.7,5.5,43.6,5.5,43.6z"></path>
		<path class="st24" d="M8.7,40.5c0-0.1,0.1-0.1,0.1-0.1h0.6c0.1,0,0.1,0.1,0.1,0.1v3.7h1.7c0.1,0,0.1,0.1,0.1,0.1v0.5    c0,0.1-0.1,0.1-0.1,0.1H8.9c-0.1,0-0.1-0.1-0.1-0.1V40.5z"></path>
		<path class="st24" d="M12.7,40.5c0-0.1,0.1-0.1,0.1-0.1h0.6c0.1,0,0.1,0.1,0.1,0.1v4.3c0,0.1-0.1,0.1-0.1,0.1h-0.6    c-0.1,0-0.1-0.1-0.1-0.1V40.5z"></path>
		<path class="st24" d="M15.1,44.3l0.2-0.4c0.1-0.1,0.2-0.1,0.2-0.1c0,0,0.6,0.4,1,0.4c0.3,0,0.6-0.2,0.6-0.5c0-0.3-0.3-0.6-0.8-0.8    c-0.6-0.2-1.2-0.6-1.2-1.4c0-0.6,0.4-1.2,1.5-1.2c0.7,0,1.2,0.3,1.3,0.4c0.1,0,0.1,0.1,0,0.2l-0.2,0.4c-0.1,0.1-0.1,0.1-0.2,0.1    c-0.1,0-0.6-0.4-0.9-0.4c-0.4,0-0.6,0.2-0.6,0.5c0,0.3,0.2,0.5,0.8,0.7c0.6,0.2,1.4,0.6,1.4,1.5c0,0.7-0.6,1.3-1.5,1.3    c-0.8,0-1.3-0.4-1.4-0.5C15.1,44.4,15,44.4,15.1,44.3z"></path>
		<path class="st24" d="M20.1,41.2h-1c-0.1,0-0.1-0.1-0.1-0.1v-0.5c0-0.1,0.1-0.1,0.1-0.1H22c0.1,0,0.1,0.1,0.1,0.1V41    c0,0.1-0.1,0.1-0.1,0.1h-1v3.7c0,0.1-0.1,0.1-0.1,0.1h-0.6c-0.1,0-0.1-0.1-0.1-0.1C20.1,44.8,20.1,41.2,20.1,41.2z"></path>
		<path class="st24" d="M27.6,40.3c1.3,0,2.4,1.1,2.4,2.4s-1,2.3-2.4,2.3c-1.3,0-2.3-1-2.3-2.3S26.2,40.3,27.6,40.3z M27.6,44.1    c0.8,0,1.5-0.7,1.5-1.5s-0.7-1.5-1.5-1.5s-1.5,0.7-1.5,1.5S26.7,44.1,27.6,44.1z"></path>
		<path class="st24" d="M31.4,40.5c0-0.1,0.1-0.1,0.1-0.1h2.7c0.1,0,0.1,0.1,0.1,0.1V41c0,0.1-0.1,0.1-0.1,0.1h-1.9v1.2h1.6    c0.1,0,0.1,0.1,0.1,0.1V43c0,0.1-0.1,0.1-0.1,0.1h-1.6v1.6c0,0.1-0.1,0.1-0.1,0.1h-0.6c-0.1,0-0.1-0.1-0.1-0.1L31.4,40.5    L31.4,40.5z"></path>
		<path class="st24" d="M38.4,41.2h-1c-0.1,0-0.1-0.1-0.1-0.1v-0.5c0-0.1,0.1-0.1,0.1-0.1h2.9c0.1,0,0.1,0.1,0.1,0.1V41    c0,0.1-0.1,0.1-0.1,0.1h-1v3.7c0,0.1-0.1,0.1-0.1,0.1h-0.6c-0.1,0-0.1-0.1-0.1-0.1V41.2z"></path>
		<path class="st24" d="M41.7,40.5c0-0.1,0.1-0.1,0.1-0.1h1.9c0.8,0,1.4,0.6,1.4,1.4c0,0.6-0.4,1.1-1,1.3l0.9,1.7    c0.1,0.1,0,0.2-0.1,0.2h-0.7c-0.1,0-0.1,0-0.1-0.1l-0.9-1.7h-0.7v1.7c0,0.1-0.1,0.1-0.1,0.1h-0.6c-0.1,0-0.1-0.1-0.1-0.1V40.5    L41.7,40.5z M43.6,42.5c0.3,0,0.6-0.3,0.6-0.7c0-0.3-0.3-0.6-0.6-0.6h-1.1v1.3L43.6,42.5L43.6,42.5z"></path>
		<path class="st24" d="M46.1,44.8l2-4.4c0,0,0.1-0.1,0.1-0.1h0.1c0.1,0,0.1,0,0.1,0.1l2,4.4c0,0.1,0,0.2-0.1,0.2h-0.6    c-0.1,0-0.1,0-0.2-0.1l-0.3-0.7h-1.9L47,44.8c0,0.1-0.1,0.1-0.2,0.1h-0.6C46.1,44.9,46.1,44.8,46.1,44.8z M48.9,43.4L48.3,42h0    l-0.6,1.4H48.9z"></path>
		<path class="st24" d="M50.8,40.5c0-0.1,0-0.2,0.1-0.2h0.7c0.1,0,0.1,0,0.1,0.1l1.2,2.8h0.1l1.2-2.8c0,0,0.1-0.1,0.1-0.1H55    c0.1,0,0.1,0.1,0.1,0.2l-2,4.4c0,0-0.1,0.1-0.1,0.1h-0.1c-0.1,0-0.1,0-0.1-0.1L50.8,40.5z"></path>
		<path class="st24" d="M56.3,40.5c0-0.1,0.1-0.1,0.1-0.1h2.7c0.1,0,0.1,0.1,0.1,0.1V41c0,0.1-0.1,0.1-0.1,0.1h-1.9v1.1h1.6    c0.1,0,0.1,0.1,0.1,0.1v0.5c0,0.1-0.1,0.1-0.1,0.1h-1.6v1.1h1.9c0.1,0,0.1,0.1,0.1,0.1v0.5c0,0.1-0.1,0.1-0.1,0.1h-2.7    c-0.1,0-0.1-0.1-0.1-0.1L56.3,40.5L56.3,40.5z"></path>
		<path class="st24" d="M60.8,40.5c0-0.1,0.1-0.1,0.1-0.1h0.6c0.1,0,0.1,0.1,0.1,0.1v3.7h1.7c0.1,0,0.1,0.1,0.1,0.1v0.5    c0,0.1-0.1,0.1-0.1,0.1h-2.4c-0.1,0-0.1-0.1-0.1-0.1V40.5z"></path>
		<path class="st24" d="M66.3,44.8l2-4.4c0,0,0.1-0.1,0.1-0.1h0.1c0.1,0,0.1,0,0.1,0.1l2,4.4c0,0.1,0,0.2-0.1,0.2h-0.6    c-0.1,0-0.1,0-0.2-0.1l-0.3-0.7h-1.9l-0.3,0.7c0,0.1-0.1,0.1-0.2,0.1h-0.6C66.3,44.9,66.2,44.8,66.3,44.8z M69.1,43.4L68.4,42h0    l-0.6,1.4H69.1z"></path>
		<path class="st24" d="M73.8,40.3c0.6,0,1.1,0.2,1.6,0.6c0.1,0.1,0.1,0.1,0,0.2L75,41.5c-0.1,0.1-0.1,0.1-0.2,0    c-0.3-0.2-0.6-0.4-1-0.4c-0.8,0-1.5,0.7-1.5,1.5c0,0.8,0.6,1.5,1.5,1.5c0.4,0,0.6-0.1,0.8-0.2v-0.6h-0.5c-0.1,0-0.1-0.1-0.1-0.1    v-0.5c0-0.1,0.1-0.1,0.1-0.1h1.2c0.1,0,0.1,0.1,0.1,0.1v1.7c0,0.1,0,0.1-0.1,0.1c0,0-0.7,0.4-1.6,0.4c-1.3,0-2.3-1-2.3-2.3    S72.5,40.3,73.8,40.3z"></path>
		<path class="st24" d="M77.1,40.5c0-0.1,0.1-0.1,0.1-0.1h2.7c0.1,0,0.1,0.1,0.1,0.1V41c0,0.1-0.1,0.1-0.1,0.1h-1.9v1.1h1.6    c0.1,0,0.1,0.1,0.1,0.1v0.5c0,0.1-0.1,0.1-0.1,0.1h-1.6v1.1h1.9c0.1,0,0.1,0.1,0.1,0.1v0.5c0,0.1-0.1,0.1-0.1,0.1h-2.7    c-0.1,0-0.1-0.1-0.1-0.1V40.5z"></path>
		<path class="st24" d="M81.5,40.4c0-0.1,0.1-0.1,0.1-0.1h0.2l2.7,2.9l0,0v-2.7c0-0.1,0.1-0.1,0.1-0.1h0.6c0.1,0,0.1,0.1,0.1,0.1    v4.4c0,0.1-0.1,0.1-0.1,0.1h-0.2l-2.7-3l0,0v2.8c0,0.1-0.1,0.1-0.1,0.1h-0.6c-0.1,0-0.1-0.1-0.1-0.1V40.4L81.5,40.4z"></path>
		<path class="st24" d="M87.8,41.2h-1c-0.1,0-0.1-0.1-0.1-0.1v-0.5c0-0.1,0.1-0.1,0.1-0.1h2.9c0.1,0,0.1,0.1,0.1,0.1V41    c0,0.1-0.1,0.1-0.1,0.1h-1v3.7c0,0.1-0.1,0.1-0.1,0.1H88c-0.1,0-0.1-0.1-0.1-0.1L87.8,41.2L87.8,41.2z"></path>
		<path class="st24" d="M90.9,44.3l0.2-0.4c0.1-0.1,0.2-0.1,0.2-0.1c0,0,0.6,0.4,1,0.4c0.3,0,0.6-0.2,0.6-0.5c0-0.3-0.3-0.6-0.8-0.8    c-0.6-0.2-1.2-0.6-1.2-1.4c0-0.6,0.4-1.2,1.5-1.2c0.7,0,1.2,0.3,1.3,0.4c0.1,0,0.1,0.1,0,0.2l-0.2,0.4c-0.1,0.1-0.1,0.1-0.2,0.1    c-0.1,0-0.6-0.4-0.9-0.4c-0.4,0-0.6,0.2-0.6,0.5c0,0.3,0.2,0.5,0.8,0.7c0.6,0.2,1.4,0.6,1.4,1.5c0,0.7-0.6,1.3-1.5,1.3    c-0.8,0-1.3-0.4-1.4-0.5C90.9,44.4,90.8,44.4,90.9,44.3z"></path>
	</g>
</g>
</svg>
