<?xml version="1.0" encoding="utf-8"?>
<svg xmlns="http://www.w3.org/2000/svg" fill="none" height="70" viewBox="0 0 71 70" width="71">
<path d="M34.2676 9.34033L34.9375 9.26318C35.166 9.23882 35.3983 9.21662 35.6309 9.19971L35.6436 9.19873L35.6572 9.19971L35.7812 9.2085C36.468 9.16469 37.0828 9.1421 37.6582 9.14209C38.0005 9.14209 38.3346 9.15107 38.6514 9.16553H38.6523L38.7607 9.17627C39.0096 9.21296 39.237 9.33196 39.4082 9.52197L39.4775 9.60596C39.6066 9.77961 39.6799 9.98576 39.6904 10.2017V10.3101C39.6635 10.8797 39.2279 11.355 38.666 11.355H38.6572C38.2181 11.3336 37.8782 11.3257 37.5391 11.3257C36.6052 11.3257 35.6164 11.386 34.6045 11.5034H34.6025L34.2051 11.5444L34.2041 11.5435C22.7626 13.1137 13.7295 22.9605 13.1943 34.4438C12.8829 41.16 15.2569 47.5266 19.8828 52.3716H19.8838L20.3223 52.8188C24.9026 57.3839 30.9599 59.8911 37.4521 59.8911C39.5075 59.8911 42.0691 59.8907 44.4307 59.5024C46.799 59.113 48.9198 58.3401 50.1348 56.8335L50.2197 56.7153C50.3982 56.4343 50.4492 56.1109 50.4307 55.8042C50.4092 55.4507 50.2954 55.14 50.2021 54.9829V54.9819C50.1739 54.9375 50.1428 54.8991 50.1094 54.8657V54.8647L48.5205 53.2944V53.2935C48.4252 53.1994 48.3496 53.0817 48.2939 52.9497L48.2529 52.8696C48.1439 52.6927 47.9509 52.5835 47.7412 52.5835C47.6651 52.5835 47.5916 52.5982 47.5195 52.6265L47.5186 52.6255C45.2697 53.5182 42.9926 53.6509 41.8359 53.6509H41.6777C41.002 53.6442 40.3407 53.4433 39.7871 53.0776L39.5566 52.9116C34.6515 49.0206 30.466 44.2699 29.3076 42.5776L29.3047 42.5747L28.9834 42.0835L28.9785 42.0757L28.9736 42.0669L28.9131 41.9497V41.9487C27.9121 40.2687 24.5576 34.3561 23.0332 28.1606V28.1597C22.8534 27.4224 22.9208 26.6632 23.2295 25.9634V25.9624L23.4473 25.4888C24.0076 24.3059 24.9323 22.6132 26.2188 21.0972C27.6875 19.3665 29.6483 17.8427 32.0957 17.6021L32.1055 17.6011H32.1611C32.2957 17.6011 32.3969 17.6123 32.4883 17.6353L32.5781 17.6616L32.5801 17.6626L32.7939 17.7485C33.0179 17.8458 33.2742 17.9787 33.5693 18.1479H33.5713L33.8555 18.3237C35.2607 19.2374 36.4269 20.7129 37.0918 22.4175L37.2666 22.8921C37.6706 24.0619 38.0264 25.6452 37.7812 27.2183V27.2192C37.6547 28.0087 37.2646 28.6983 36.6758 29.1558V29.1567C36.4861 29.303 36.2749 29.4408 36.0039 29.6167L36.0049 29.6177L34.4521 30.6421L34.4531 30.6431C34.2681 30.7667 34.1669 30.9787 34.1865 31.1978L34.2266 31.4897C34.3715 32.284 34.9072 33.9019 36.7344 36.8267L37.1143 37.4116C38.9687 40.2141 40.1089 41.1518 40.6133 41.4595H40.6123C40.7079 41.5167 40.8153 41.5464 40.9238 41.5464C41.0419 41.5463 41.1562 41.5121 41.2549 41.4458L41.2559 41.4448L42.752 40.4448C42.8872 40.3527 43.0116 40.2672 43.1299 40.1899L43.4707 39.9819C43.8831 39.7502 44.3582 39.6294 44.8418 39.6294C45.1217 39.6294 45.4043 39.6685 45.6797 39.7446L45.999 39.8423C47.5753 40.3711 48.8668 41.4957 49.6855 42.3608L49.9287 42.6294C51.118 43.9964 51.8826 45.7088 52.0391 47.3823L52.0645 47.7065C52.0835 48.0153 52.0842 48.2815 52.0674 48.5122V48.5161L51.8711 48.4985L52.0664 48.5161C52.0533 48.6617 52.008 48.8114 51.9316 48.9478L51.9326 48.9487C51.5276 49.6871 50.9809 50.3375 50.2246 50.9966L50.2236 50.9976C50.0979 51.1063 50.023 51.2636 50.0176 51.4292V51.4302C50.0113 51.5932 50.0743 51.7554 50.1924 51.8735L51.7607 53.4419L51.9062 53.6069C52.2407 54.0315 52.5222 54.7147 52.6035 55.4731C52.6913 56.2925 52.5484 57.224 51.9619 58.0405L51.8389 58.2017C50.2631 60.1558 47.7603 61.1182 45.124 61.5962C42.5029 62.0714 39.7136 62.0727 37.5 62.0728L37.498 62.0747H37.4521C30.3765 62.0747 23.7714 59.3434 18.7793 54.3677L18.3018 53.8794C13.2608 48.5978 10.6711 41.657 11.0127 34.3403L11.0469 33.7554C11.9032 21.4935 21.6289 11.0709 33.8994 9.37939H33.9004L34.0342 9.36182L34.043 9.35986L34.2676 9.34033ZM31.9424 19.8364C31.9293 19.8376 31.9126 19.8396 31.8955 19.8413C31.8784 19.843 31.8612 19.8447 31.8477 19.8462C31.8434 19.8467 31.8398 19.8468 31.8369 19.8472L31.5195 19.9224C29.9486 20.3518 28.6173 21.5436 27.5605 22.8911C26.4365 24.3244 25.6448 25.9069 25.2246 26.8491C25.1154 27.0991 25.0899 27.3805 25.1533 27.6392L25.2969 28.2007C26.6341 33.2458 29.154 37.996 30.4014 40.1675L30.8643 40.9556L30.8711 40.9673H30.8701C30.907 41.0392 30.9335 41.0864 30.9541 41.1206L31.0059 41.1958L31.0117 41.2036L31.0166 41.2104C31.889 42.5237 36.0475 47.3374 40.9131 51.1978L41.04 51.2856C41.3381 51.4649 41.6277 51.4663 41.7578 51.4663C42.8971 51.4663 44.4502 51.3602 45.9482 50.9048C47.3529 50.4777 48.6949 49.748 49.6104 48.5249L49.7871 48.2729C49.8572 48.1654 49.8919 48.0378 49.8857 47.9136V47.9126C49.8788 47.8016 49.869 47.6905 49.8584 47.5806V47.5796C49.7483 46.3839 49.1617 45.0833 48.2725 44.0601L48.0908 43.8589C47.1096 42.8202 46.0467 42.1142 45.0996 41.8511V41.8521C44.9798 41.8229 44.9047 41.8134 44.8389 41.813C44.6849 41.8206 44.5953 41.8507 44.5205 41.8931L44.5195 41.8921C44.3744 41.9755 44.2293 42.0764 44.0518 42.1987C44.0103 42.2274 43.5252 42.5519 43.0518 42.8687C42.8119 43.0291 42.5732 43.1886 42.3945 43.3081C42.232 43.4168 42.123 43.4888 42.1025 43.5024L42.1035 43.5034C41.812 43.7213 41.431 43.8286 41.0273 43.8286C40.9416 43.8286 40.8569 43.8239 40.7715 43.8149L40.7686 43.814C39.9426 43.714 39.0535 43.1624 38.0908 42.2017C37.1239 41.2368 36.0602 39.8363 34.8857 37.9946L34.8848 37.9937C33.7246 36.1388 32.9125 34.5689 32.4492 33.27C31.9879 31.9764 31.8624 30.9224 32.1123 30.1157C32.2724 29.5962 32.5502 29.2918 32.793 29.1177L32.8945 29.0503L34.8613 27.7505L34.8643 27.7495L35.1143 27.5864C35.1913 27.5345 35.2625 27.4829 35.332 27.4292C35.4817 27.3029 35.5783 27.1247 35.6172 26.8784C35.7747 25.868 35.5796 24.5663 35.0527 23.2114L34.9482 22.9585C34.3992 21.7065 33.4829 20.628 32.4697 20.0386L32.4678 20.0376C32.4048 19.9998 32.3235 19.9537 32.2393 19.9087L32.2383 19.9077C32.152 19.861 32.0533 19.8357 31.9551 19.8354C31.9518 19.8357 31.9475 19.836 31.9424 19.8364Z" fill="#1E6E9F" stroke="#1E6E9F" stroke-width="0.394085"/>
<path d="M61.8047 27.3739C62.2274 27.3741 62.6115 27.6211 62.792 27.993L62.8564 28.1591L62.8574 28.161L62.9678 28.5487L62.9688 28.5507L63.083 28.9813C63.6376 31.1386 63.9189 33.3663 63.9189 35.6073C63.9189 42.0875 61.57 48.2842 57.292 53.1268L56.8721 53.5917C56.6666 53.8131 56.3758 53.9412 56.0713 53.9413H55.7529L55.7744 53.8973C55.6102 53.851 55.4577 53.7668 55.3301 53.6493H55.3291C55.1411 53.4752 55.0219 53.2462 54.9883 52.9969L54.9795 52.8895C54.9694 52.6338 55.0478 52.3883 55.2002 52.1884L55.2695 52.1053C59.4381 47.6015 61.7334 41.7427 61.7334 35.6053C61.7334 33.4118 61.4412 31.2327 60.8623 29.1307V29.1317L60.7588 28.7743L60.7324 28.6659C60.6305 28.1214 60.9575 27.5765 61.502 27.4169H61.5029L61.6514 27.3846C61.7017 27.3776 61.7532 27.3739 61.8047 27.3739Z" fill="#1E6E9F" stroke="#1E6E9F" stroke-width="0.394085"/>
<path d="M42.7435 22.7294V22.3616C43.8102 20.9639 46.532 17.2674 47.617 15.6123C47.8561 15.2444 48.0952 14.7295 48.0952 14.2146C48.0952 13.5157 47.5067 12.8904 46.4768 12.8904C45.7228 12.8904 45.0423 13.4238 44.6929 13.81C44.5458 13.9571 44.3251 13.9571 44.178 13.81L43.0561 12.6698C42.9274 12.5594 42.909 12.3387 43.0377 12.1916C43.0377 12.1916 44.5274 10.3893 46.7159 10.3893C49.3457 10.3893 50.8905 12.0629 50.8905 14.1042C50.8905 15.0789 50.6147 15.6307 50.1733 16.495C49.5848 17.5433 48.0768 19.5111 47.2124 20.7249H50.4492C50.6331 20.7249 50.7986 20.8904 50.7986 21.0743V22.7294C50.7986 22.9133 50.6331 23.0789 50.4492 23.0789H43.0929C42.8906 23.0789 42.7435 22.9133 42.7435 22.7294ZM52.3741 20.4858C52.1719 20.4858 52.0247 20.3203 52.0247 20.1364V18.187L58.4431 10.4813C58.4982 10.4261 58.5534 10.3709 58.7189 10.3709H60.043C60.2269 10.3709 60.3925 10.5181 60.3925 10.7204L60.4109 18.2605H61.8637C62.066 18.2605 62.2131 18.4076 62.2131 18.5915V20.118C62.2131 20.3019 62.066 20.4674 61.8637 20.4674H60.4109L60.4292 22.7294C60.4292 22.9133 60.2637 23.0789 60.0798 23.0789H58.112C57.9281 23.0789 57.7626 22.9133 57.7626 22.7294V20.4858H52.3741ZM54.9121 18.2053H57.8362V14.7847L54.9121 18.2053Z" fill="#1E6E9F"/>
</svg>