<?xml version="1.0" encoding="utf-8"?>
<svg xmlns="http://www.w3.org/2000/svg" fill="none" height="70" viewBox="0 0 70 70" width="70">
<path d="M64.2849 41.6354C64.1229 41.5387 60.304 39.286 56.7749 40.4752C56.4462 40.5864 56.1465 40.7435 55.8516 40.8982C56.0716 40.1392 56.2673 39.3706 56.4099 38.585C57.7441 38.5633 60.5866 38.2829 62.4719 36.3879C64.9494 33.9008 64.6424 29.7461 64.6279 29.5692C64.5869 29.064 64.1856 28.6652 63.6805 28.6265C63.4992 28.6169 59.3443 28.3292 56.8716 30.814C56.7483 30.9373 56.6613 31.0823 56.5501 31.2152C56.4414 30.4538 56.2843 29.7046 56.103 28.9625C57.0916 28.4042 59.54 26.792 60.2434 24.1744C61.1038 20.9524 58.8874 17.6798 58.7931 17.5418C58.5055 17.1237 57.9641 16.9811 57.5024 17.1962C57.3574 17.2663 54.063 18.8905 53.0551 21.8998C52.5958 21.1892 52.0858 20.5124 51.5517 19.855C52.3179 18.9873 53.8237 16.9763 53.7077 14.6245C53.5578 11.5524 50.6984 9.30694 50.5776 9.21511C50.1788 8.90573 49.6108 8.93232 49.2434 9.28037C49.1322 9.38673 46.5025 11.8981 46.6499 14.9701C46.6572 15.12 46.6983 15.2553 46.7176 15.3979C45.6155 14.6414 44.4504 13.9622 43.208 13.3966C42.6908 13.1597 42.0793 13.3869 41.8448 13.9066C41.608 14.4238 41.8376 15.0353 42.3548 15.2698C49.8716 18.6948 54.7301 26.2262 54.7301 34.4614C54.7301 44.4291 47.6552 53.1159 37.9072 55.1126C37.0371 55.2915 36.1983 55.5284 35.3934 55.8184C34.5885 55.5259 33.7523 55.2915 32.8797 55.1126C23.1342 53.1161 16.0567 44.4291 16.0567 34.4614C16.0567 26.2262 20.915 18.6928 28.432 15.2698C28.9493 15.0353 29.1765 14.4238 28.942 13.9066C28.7052 13.3893 28.096 13.1621 27.5788 13.3966C26.3365 13.9622 25.1715 14.6414 24.0693 15.3979C24.0886 15.2529 24.1297 15.1175 24.1369 14.9701C24.2844 11.8981 21.657 9.38674 21.5434 9.28037C21.1736 8.93232 20.6081 8.90573 20.2093 9.21511C20.0884 9.30937 17.2266 11.5524 17.0792 14.6245C16.9656 16.9739 18.469 18.9873 19.2352 19.855C18.701 20.5124 18.191 21.1891 17.7318 21.8998C16.7239 18.8905 13.4295 17.2663 13.2844 17.1962C12.8252 16.9811 12.2813 17.1261 11.9937 17.5418C11.8995 17.6796 9.68303 20.9523 10.5435 24.1744C11.2444 26.792 13.6929 28.4018 14.6815 28.9625C14.4978 29.7021 14.3431 30.4514 14.2343 31.2152C14.1231 31.0823 14.0361 30.9397 13.9128 30.814C11.4378 28.3269 7.28279 28.6169 7.10396 28.6265C6.5988 28.6676 6.1976 29.0664 6.15651 29.5692C6.14201 29.7456 5.83504 33.8981 8.31253 36.3879C10.1978 38.2853 13.0403 38.5633 14.3745 38.585C14.5171 39.3706 14.7129 40.1392 14.9328 40.8982C14.6355 40.7411 14.3382 40.584 14.0095 40.4752C10.4831 39.2884 6.65922 41.5435 6.49958 41.6354C6.06693 41.8964 5.88565 42.433 6.07418 42.9043C6.14427 43.0759 7.82893 47.1752 11.3651 48.362C12.0975 48.6061 12.8419 48.7028 13.5622 48.7028C15.4499 48.7028 17.1636 48.0382 18.1087 47.591C18.5535 48.2339 19.0369 48.8478 19.542 49.4424C19.5179 49.4424 19.4937 49.4328 19.4695 49.4328C15.6916 49.4328 12.7503 52.8263 12.6291 52.9714C12.3003 53.3557 12.3003 53.9237 12.6291 54.308C12.7523 54.453 15.6915 57.8466 19.4695 57.8466C22.5585 57.8466 25.0602 55.6012 25.9474 54.6947C27.9511 55.809 30.1313 56.6526 32.4636 57.1311C32.5143 57.1408 32.5578 57.1626 32.6086 57.1722C31.3711 57.9118 30.2375 58.7796 29.2827 59.8189C28.8984 60.237 28.9274 60.8872 29.3456 61.2739C29.5438 61.4552 29.7903 61.5447 30.0417 61.5447C30.3196 61.5447 30.5976 61.4335 30.8007 61.2111C32.0358 59.8648 33.6069 58.8255 35.3882 58.0738C37.1696 58.8255 38.7407 59.8648 39.9758 61.2111C40.1788 61.4311 40.4568 61.5447 40.7348 61.5447C40.9837 61.5447 41.2327 61.4552 41.4309 61.2739C41.8491 60.8896 41.8781 60.2394 41.4937 59.8189C40.539 58.7795 39.4078 57.9094 38.1679 57.1722C38.2162 57.1626 38.2622 57.1408 38.3129 57.1311C40.6453 56.6526 42.828 55.809 44.8291 54.6947C45.7162 55.6011 48.2178 57.8466 51.307 57.8466C55.0872 57.8466 58.0261 54.4506 58.1474 54.308C58.4761 53.9237 58.4761 53.3557 58.1474 52.9714C58.0241 52.8263 55.0826 49.4328 51.307 49.4328C51.2828 49.4328 51.261 49.4424 51.2345 49.4424C51.7396 48.8478 52.2255 48.2339 52.6678 47.591C53.6128 48.0381 55.3241 48.7028 57.2143 48.7028C57.937 48.7028 58.679 48.6061 59.4138 48.3596C62.9475 47.1728 64.6322 43.0759 64.7023 42.9043C64.8908 42.433 64.712 41.8964 64.2769 41.6354L64.2849 41.6354ZM58.3293 32.2642C59.533 31.0557 61.4352 30.7535 62.5712 30.6858C62.5084 31.8242 62.2135 33.7241 61.0122 34.935C59.8085 36.1435 57.9088 36.4457 56.7703 36.5134C56.8331 35.375 57.1256 33.4727 58.3293 32.2642ZM48.7069 14.8689C48.6416 13.5347 49.4272 12.2633 50.0193 11.4995C50.6816 12.2004 51.588 13.3896 51.6508 14.7262C51.7161 16.0604 50.9329 17.3318 50.3408 18.0932C49.6785 17.3898 48.7721 16.1958 48.7069 14.8689ZM19.1367 14.7287C19.1996 13.3945 20.106 12.2053 20.7682 11.5019C21.3604 12.2633 22.146 13.5347 22.0807 14.8713C22.0154 16.2055 21.1115 17.3947 20.4492 18.0956C19.857 17.3318 19.0714 16.0556 19.1367 14.7287ZM9.77544 34.9375C8.57176 33.7266 8.27686 31.8244 8.21646 30.6883C9.35487 30.756 11.2547 31.0582 12.4584 32.2667C13.6621 33.4752 13.9546 35.3774 14.0174 36.5159C12.879 36.4482 10.9816 36.1461 9.77544 34.9375ZM12.5357 23.6426C12.132 22.1392 12.746 20.5004 13.2221 19.5409C14.114 20.133 15.4652 21.2473 15.8688 22.7531C16.27 24.2565 15.6561 25.8953 15.1799 26.8548C14.288 26.2627 12.9369 25.1484 12.5357 23.6426ZM12.0233 46.4088C10.2274 45.8045 9.00921 44.0449 8.41223 42.979C9.52891 42.4859 11.5689 41.826 13.3575 42.4231C15.1534 43.0273 16.3716 44.7845 16.9686 45.8505C15.8495 46.3387 13.8143 47.0106 12.0233 46.4088ZM19.4726 55.7893C17.5365 55.7893 15.7818 54.472 14.8657 53.6381C15.7818 52.8066 17.5365 51.4893 19.4726 51.4893C21.4086 51.4893 23.1634 52.8042 24.0819 53.6381C23.1634 54.472 21.411 55.7893 19.4726 55.7893ZM51.3148 51.4894C53.2509 51.4894 55.0032 52.8018 55.9193 53.6381C54.9984 54.4696 53.2364 55.7917 51.3148 55.7917C49.3788 55.7917 47.624 54.4745 46.7055 53.6405C47.624 52.8066 49.3764 51.4918 51.3148 51.4918V51.4894ZM54.9186 22.7508C55.3223 21.2474 56.6734 20.1331 57.5653 19.5386C58.0414 20.4982 58.6553 22.1393 58.2541 23.6403C57.8505 25.1437 56.5018 26.258 55.6099 26.8501C55.1362 25.8857 54.5198 24.2446 54.921 22.7484L54.9186 22.7508ZM58.7666 46.4087C56.9683 47.0178 54.938 46.341 53.8213 45.8527C54.4183 44.7868 55.6389 43.0296 57.4324 42.4253C59.2234 41.8308 61.261 42.493 62.3776 42.9813C61.7806 44.0472 60.5624 45.8068 58.7666 46.4087Z" fill="#CC973D"/>
<path d="M22.7018 31.3752C22.4891 32.0012 22.6486 32.6828 23.1272 33.1613L28.0145 37.9157L26.8615 44.6349C26.7455 45.2778 27.0017 45.9207 27.5238 46.3098C28.0579 46.7038 28.7565 46.7594 29.3535 46.4525L35.3961 43.2716L41.4314 46.4549C41.6852 46.5854 41.9559 46.6482 42.2267 46.6482C42.5892 46.6482 42.947 46.5346 43.2515 46.3074C43.776 45.9183 44.0298 45.2753 43.9162 44.6397L42.7608 37.9131L47.648 33.1587L47.6577 33.1491C48.129 32.6777 48.2885 31.9961 48.0759 31.3677C47.8656 30.7489 47.3338 30.3115 46.7029 30.2293L39.9473 29.2359L36.926 23.1304C36.3555 21.9484 34.4171 21.9509 33.8466 23.1256L30.8253 29.2359L24.082 30.2269C23.4391 30.3115 22.9074 30.7514 22.6995 31.3726L22.7018 31.3752ZM31.6615 31.1963C31.9951 31.148 32.2851 30.9353 32.435 30.6331L35.3886 24.6606L38.3446 30.6331C38.4945 30.9353 38.7845 31.148 39.1181 31.1963L45.7215 32.1679L40.9406 36.8183C40.6965 37.0552 40.5853 37.3936 40.6433 37.7296L41.772 44.3089L35.8793 41.1982C35.5772 41.0387 35.217 41.0363 34.9197 41.1958L29.01 44.3089L30.1388 37.7296C30.1968 37.396 30.0856 37.0553 29.8415 36.8183L25.0605 32.1679L31.664 31.1963L31.6615 31.1963Z" fill="#CC973D"/>
</svg>