<?xml version="1.0" encoding="UTF-8"?>
<!-- Generator: Adobe Illustrator 23.0.3, SVG Export Plug-In . SVG Version: 6.00 Build 0)  -->
<svg xmlns="http://www.w3.org/2000/svg" xmlns:xlink="http://www.w3.org/1999/xlink" version="1.1" id="Layer_1" x="0px" y="0px" width="62.1px" height="40px" viewBox="0 0 62.1 40" style="enable-background:new 0 0 62.1 40;" xml:space="preserve">
<style type="text/css">
	.st0{fill-rule:evenodd;clip-rule:evenodd;fill:#777777;}
</style>
<path id="Path_216" class="st0" d="M8.8,40l2.6-12.7h4.1L12.9,40H8.8z M21.3,35.8h2.6l-0.7-4.7L21.3,35.8z M15.5,40l6.2-12.7h4.1  L28.4,40h-3.9l-0.2-1.5h-4.1L19.6,40H15.5z M32.1,40l1.4-9.6h-3.6l0.6-3.2h11.1L41,30.4h-3.4L36.2,40H32.1z M46,35.8h2.6l-0.7-4.7  L46,35.8z M40.2,40l6.2-12.7h4.1L53,40h-3.9L49,38.5h-4.1L44.3,40H40.2z M62.1,13H42.7c-0.7,3.6-3.2,6.5-8.1,8.6  c0.7,1.9,2.5,3.2,4.5,3.3h10.5c1.6,0,2.9-1.4,3.4-2.5H42.2c-0.6-0.1-0.7-0.6-0.1-0.7h10.5c1.4,0,2.6-1.2,3.3-2.5H43.8  c-0.6-0.1-0.6-0.6,0-0.7H56c1.3,0,2.4-1.5,2.8-2.4H45.3c-0.7-0.1-0.7-0.7,0-0.8h13.8C60.3,15.4,61.4,14.2,62.1,13L62.1,13z M0,13  h19.4c0.7,3.6,3.2,6.5,8.1,8.6c-0.7,1.9-2.4,3.2-4.4,3.3H12.5c-1.6,0-2.9-1.4-3.4-2.5h10.7c0.7-0.1,0.7-0.6,0.1-0.7H9.4  c-1.4,0-2.6-1.2-3.3-2.5h12.3c0.6-0.1,0.6-0.6,0-0.7H5.9c-1.2,0-2.4-1.5-2.8-2.4h13.5c0.7-0.1,0.7-0.7,0-0.8H2.9  C1.8,15.4,0.8,14.2,0,13L0,13z M24.7,2.3c0.7,0.7,1.5,1.2,2.4,1.5c0.8-1.4,1.8-2.7,3-3.8C28.1,0.3,26.3,1.1,24.7,2.3L24.7,2.3z   M21.3,9.4h4.3c0.1-1.7,0.5-3.4,1.2-5c-1-0.4-1.8-1-2.6-1.7C22.5,4.5,21.4,6.9,21.3,9.4L21.3,9.4z M30.7,5.3v4.1h-4.3  c0.1-1.7,0.4-3.3,1.1-4.8C28.5,5,29.6,5.3,30.7,5.3L30.7,5.3z M37.3,2.3c-0.7,0.6-1.5,1.1-2.4,1.5c-0.8-1.4-1.8-2.7-3-3.8  C33.9,0.3,35.8,1.1,37.3,2.3z M40.8,9.4h-4.4c-0.1-1.7-0.5-3.4-1.2-5c1-0.5,1.8-1,2.6-1.7C39.6,4.5,40.7,6.9,40.8,9.4z M31.4,5.3  v4.1h4.3c-0.1-1.7-0.4-3.3-1.1-4.8C33.6,5,32.5,5.3,31.4,5.3L31.4,5.3z M24.7,17.1c0.7-0.6,1.5-1.1,2.4-1.5c0.8,1.4,1.8,2.7,3,3.7  C28.1,19.2,26.3,18.4,24.7,17.1L24.7,17.1z M21.3,10.1h4.3c0.1,1.7,0.5,3.4,1.2,5c-1,0.4-1.8,1-2.6,1.6  C22.5,14.9,21.4,12.6,21.3,10.1z M30.7,14.1v-4.1h-4.3c0.1,1.6,0.4,3.2,1.1,4.7C28.5,14.4,29.6,14.2,30.7,14.1L30.7,14.1z   M37.3,17.2c-0.7-0.6-1.5-1.1-2.4-1.5c-0.8,1.4-1.8,2.7-3,3.7C33.9,19.2,35.8,18.4,37.3,17.2L37.3,17.2z M40.8,10.1h-4.4  c-0.1,1.7-0.5,3.4-1.2,5c1,0.4,1.8,1,2.6,1.6C39.6,14.9,40.7,12.6,40.8,10.1z M31.4,14.1v-4.1h4.3c-0.1,1.6-0.4,3.2-1.1,4.7  C33.6,14.4,32.5,14.2,31.4,14.1L31.4,14.1z M30.7,0.5c-1.2,1-2.2,2.2-2.9,3.6c0.9,0.4,1.9,0.5,2.9,0.6V0.5z M31.4,0.5  c1.2,1,2.2,2.2,2.9,3.6c-0.9,0.4-1.9,0.5-2.9,0.6V0.5L31.4,0.5z M30.7,19c-1.2-1-2.2-2.2-2.9-3.6c0.9-0.4,1.9-0.5,2.9-0.5V19  L30.7,19z M31.4,19c1.2-1,2.2-2.3,2.9-3.7c-0.9-0.3-1.9-0.5-2.9-0.5V19L31.4,19z"></path>
</svg>
