<?xml version="1.0" encoding="UTF-8"?>
<!-- Generator: Adobe Illustrator 23.0.3, SVG Export Plug-In . SVG Version: 6.00 Build 0)  -->
<svg xmlns="http://www.w3.org/2000/svg" xmlns:xlink="http://www.w3.org/1999/xlink" version="1.1" id="Layer_1" x="0px" y="0px" width="236.7px" height="40px" viewBox="0 0 236.7 40" style="enable-background:new 0 0 236.7 40;" xml:space="preserve">
<style type="text/css">
	.st0{fill:#777777;}
	.st1{fill:none;}
</style>
<g>
	<path id="Path_217" class="st0" d="M30,6.3c0.6,0,1.1,0,1.6,0c1.6,0,3.1,0,4.7-0.1c0.2,0,0.3,0.1,0.4,0.1c-0.1,0-0.2,0.1-0.2,0.1   c-0.1,0-0.3,0.1-0.5,0.1c-0.7,0.1-1.2,0.7-1.1,1.4c0,0.1,0,0.2,0.1,0.3c0.3,0.9,0.6,1.8,0.9,2.6c1.4,3.6,2.7,7.1,4.1,10.7l0.1,0.2   c0.5-1.1,0.9-2.3,1.4-3.3c1.1-2.8,2.3-5.7,3.4-8.6c0.2-0.6,0.3-1,0.4-1.6s-0.3-1.2-0.8-1.3c-0.4-0.1-0.8-0.3-1.1-0.4   c-0.1,0-0.2-0.1-0.4-0.1c0-0.1,0-0.1,0-0.2c0.8,0,1.4,0.1,2.1,0.1c0.8,0,1.5,0,2.3,0l2.2-0.1c0,0.1,0,0.1,0,0.1   c-0.1,0-0.2,0.1-0.4,0.1c-1.4,0.2-2.5,1.1-2.9,2.4c-2,4.6-3.9,9.2-5.9,13.9c-0.4,0.8-0.6,1.7-0.8,2.5l-0.1,0.4   c-0.1-0.1-0.2-0.2-0.2-0.4c-2.1-5.5-4.2-11-6.4-16.5c-0.2-0.4-0.4-0.8-0.7-1.1c-0.4-0.7-1.1-1.1-1.9-1.2C30.1,6.4,30,6.4,30,6.3   C30,6.5,30,6.4,30,6.3z"></path>
	<path id="Path_218" class="st0" d="M236.7,24.8c-1.2,0.8-2.8,0.6-3.8-0.5c-0.6-0.6-1.1-1.2-1.6-2c-0.7-1-1.2-2.1-1.9-3.2   c-0.2-0.3-0.3-0.5-0.7-0.4c-0.2,0-0.5,0-0.7,0c0,0,0,0,0,0.1c0,1.6,0,3.2,0.1,4.8c0.1,0.9,0.3,1.1,1.2,1.3c0,0,0.1,0.1,0.2,0.1   h-4.3c0,0,0,0,0-0.1l0.2-0.1c0.7-0.1,0.9-0.3,1-1c0.1-0.7,0.1-1.3,0.1-2.1c0-2.5,0-5.1,0-7.6c0-0.4-0.1-0.8-0.1-1   c0-0.5-0.4-0.8-0.8-0.8c-0.1,0-0.1,0-0.1-0.1c0,0,0,0-0.1-0.1c0.1,0,0.1-0.1,0.2-0.1c1.1,0,2.3,0,3.5-0.1c0.8-0.1,1.7,0.1,2.4,0.4   c1.6,0.7,2.3,2.4,1.7,4c-0.3,0.8-0.8,1.3-1.6,1.7c-0.1,0.1-0.2,0.1-0.4,0.2c-0.1,0.1-0.3,0.1-0.4,0.1c0.2,0.4,0.4,0.7,0.5,0.9   c0.8,1.6,1.9,3.1,3,4.4c0.1,0.1,0.2,0.2,0.3,0.3c0.8,0.8,1,0.8,2,0.4C236.7,24.6,236.7,24.7,236.7,24.8z M228.1,12.4v5.9   c0.8,0.2,1.6,0.1,2.3-0.2c0.7-0.3,1.2-0.8,1.4-1.6c0.2-0.9,0.2-1.9-0.1-2.8c-0.2-0.7-0.7-1.1-1.3-1.3   C229.5,12.3,228.7,12.3,228.1,12.4L228.1,12.4z"></path>
	<path id="Path_219" class="st0" d="M205.4,39.9c-0.4-1-0.8-2-1.2-3c-0.5-1.2-1-2.4-1.5-3.6c0-0.1-0.1-0.2-0.1-0.4   c0.3,0,0.7,0,0.9,0c0.1,0.1,0.3,0.2,0.3,0.3c0.5,1.2,0.9,2.3,1.4,3.6c0.1,0.1,0.1,0.3,0.2,0.5c0.1-0.1,0.1-0.3,0.2-0.4   c0.5-1.2,1-2.3,1.4-3.6c0.1-0.3,0.4-0.5,0.7-0.5c0,0,0,0,0.1,0c0.2,0,0.4,0,0.6,0C207.3,35.2,206.4,37.6,205.4,39.9L205.4,39.9z"></path>
	<path id="Path_220" class="st0" d="M146.6,10.4c0,0.8-0.1,1.7-0.1,2.6c-0.1,2.8-0.2,5.5-0.3,8.4c0,0.5,0,0.8,0.1,1.3   c0.1,1.2,1,2.2,2.3,2.2c0.2,0,0.3,0.1,0.5,0.1v0.1h-6.1c0.2-0.1,0.3-0.2,0.4-0.2c1.2-0.1,2.2-1.1,2.3-2.3c0.2-1.5,0.3-2.9,0.4-4.4   c0.1-2.7,0.2-5.5,0.2-8.3c0-0.3-0.1-0.6-0.2-0.8c-0.2-0.5-0.5-0.8-0.7-1.3c-0.3-0.6-0.8-0.9-1.5-1c-0.2,0-0.4-0.1-0.6-0.1   c0-0.1,0-0.1,0-0.1c0.1,0,0.2,0,0.4,0l3.3,0.1c0.2,0,0.4,0.1,0.4,0.3c2.4,5.1,4.9,10.2,7.3,15.3c0.1,0.2,0.2,0.3,0.3,0.6   c2.6-5.4,5.1-10.7,7.2-16.2h3.2c0,0,0,0.1,0.1,0.1c-0.1,0.1-0.2,0.2-0.2,0.2c-1,0.2-1.7,1-1.6,2.1c-0.1,0.8-0.1,1.7-0.1,2.4   c0,3.4,0,6.8,0,10.2c0,0.8,0.1,1.5,0.2,2.3c0.1,0.7,0.7,1.2,1.3,1.2c0.2,0,0.3,0.1,0.5,0.1v0.1h-6.2c0.1-0.1,0.1-0.2,0.2-0.2   c1.5-0.1,1.7-1.2,1.8-2.4c0.1-1.1,0.1-2.3,0.1-3.5c0-3.1,0-6.1,0-9.1c0-0.1,0-0.2-0.1-0.3c-0.1,0.1-0.1,0.2-0.2,0.4   c-1.7,3.8-3.5,7.5-5.2,11.4l-1.9,4.2c-0.1,0.1-0.2,0.2-0.2,0.4c-2.4-5.2-4.8-10.3-7.2-15.5C146.7,10.4,146.7,10.4,146.6,10.4z"></path>
	<path id="Path_221" class="st0" d="M188.8,25.6c-1.7-3.6-3.4-7.1-5.1-10.6h-0.1c0,0.8-0.1,1.7-0.1,2.6c-0.1,1.6-0.1,3.3-0.2,4.9   c0,0.2,0,0.4,0,0.6c0.2,1.2,0.5,1.6,1.7,1.8c0.1,0,0.2,0.1,0.2,0.1H181c0.1-0.1,0.2-0.1,0.3-0.1c0.9-0.1,1.6-0.8,1.6-1.8   c0.1-1.2,0.2-2.4,0.2-3.6c0.1-1.6,0.1-3.3,0.1-5c0-1-0.8-2-1.8-2.3c-0.1,0-0.2-0.1-0.3-0.1h1.6c0.2,0,0.3,0,0.5,0   c0.5-0.1,0.7,0.1,0.8,0.5c1.6,3.4,3.3,6.8,5,10.1c0.1,0.1,0.1,0.2,0.2,0.4c1.9-3.7,3.5-7.3,5.1-11.1h2.3v0.1   c-0.1,0-0.2,0.1-0.3,0.1c-0.6,0.1-0.9,0.5-0.9,1c-0.1,0.7-0.1,1.3-0.1,2c0,2.5,0,5.1,0,7.5c0,0.2,0,0.4,0.1,0.7   c0.1,0.8,0.4,1.3,1.2,1.3h0.1c0,0,0,0,0,0.1h-4.3v-0.1c0.1,0,0.2-0.1,0.4-0.1c0.5-0.1,0.8-0.5,0.9-0.9c0.1-0.7,0.2-1.3,0.2-2   c0-2.4,0-5,0-7.5C192.1,18.2,190.5,22,188.8,25.6z"></path>
	<path id="Path_222" class="st0" d="M59,18.7c0,1.6,0.1,3.3,0.2,4.9c0.1,0.9,0.3,1.1,1.2,1.3c0,0,0.1,0,0.1,0.1h-4.3c0,0,0,0,0-0.1   c0.1,0,0.2-0.1,0.3-0.1c0.7-0.1,0.8-0.2,0.9-0.8c0.1-0.6,0.2-1.2,0.1-1.9v-7.5c0-0.5-0.1-0.8-0.1-1.3c0-0.5-0.4-0.9-0.8-1   c0,0-0.1-0.1-0.2-0.1c0.1,0,0.1-0.1,0.2-0.1c1.2,0,2.3-0.1,3.6-0.1c0.8,0,1.5,0.1,2.3,0.4c1.2,0.4,2.1,1.6,2.1,2.9   c0.1,1.2-0.7,2.3-1.8,2.8c-0.2,0.1-0.5,0.2-0.8,0.3c0.2,0.3,0.3,0.6,0.5,0.8c0.8,1.7,1.9,3.2,3.2,4.6c0.2,0.2,0.4,0.4,0.7,0.6   c0.5,0.4,0.8,0.6,1.4,0.1c0,0,0.1,0,0.3,0c-0.2,0.4-0.6,0.6-0.9,0.7c-1.1,0.3-2.3-0.1-3-1c-0.8-1-1.6-2.2-2.3-3.3   c-0.4-0.7-0.8-1.2-1-1.9c-0.1-0.2-0.3-0.4-0.6-0.3C59.5,18.8,59.3,18.7,59,18.7z M59,12.4v5.9c0.8,0.2,1.5,0.1,2.3-0.2   c0.8-0.3,1.3-0.8,1.5-1.6c0.3-0.9,0.2-2-0.1-2.9c-0.2-0.6-0.7-1-1.2-1.2C60.5,12.3,59.8,12.3,59,12.4z"></path>
	<path id="Path_223" class="st0" d="M200.4,25l0.3-0.1c0.7-0.1,0.8-0.4,0.9-1c0.1-0.6,0.1-1.1,0.1-1.7v-7.9c0-0.4,0-0.8-0.1-1.2   c-0.1-0.6-0.2-0.8-0.8-0.8c-0.1,0-0.1,0-0.2,0c0,0,0,0-0.1-0.1l0.1-0.1c1.5-0.1,2.9-0.2,4.4-0.1c1.1-0.1,2.2,0.5,2.7,1.4   c0.8,1.3,0.6,3.1-0.8,3.9c-0.2,0.1-0.4,0.2-0.6,0.3c-0.1,0-0.2,0.1-0.2,0.1c0.2,0.1,0.4,0.1,0.5,0.1c1.5,0.4,2.6,1.7,2.6,3.3   c0.1,1.7-0.9,3.2-2.5,3.7c-0.8,0.3-1.7,0.4-2.5,0.3C203,25,201.8,25,200.4,25C200.4,24.9,200.4,24.9,200.4,25   C200.4,25.1,200.4,25.1,200.4,25z M203.1,18.3c0,1.2,0,2.5,0,3.8c0,0.7,0.1,1.2,0.3,1.9c0.1,0.5,0.5,0.8,0.9,0.9   c1.4,0.4,2.8-0.4,3.2-1.8c0.3-0.9,0.3-1.9,0-2.8c-0.3-0.8-0.9-1.5-1.7-1.8C204.9,18.2,204,18.1,203.1,18.3z M203.1,18   c1.2,0.4,2.5-0.1,3.2-1.1c0.6-1.1,0.5-2.4-0.2-3.5c-0.8-0.9-1.9-1.2-3-0.9V18z"></path>
	<path id="Path_224" class="st0" d="M110.1,18.6c0,3.7-2.9,6.6-6.5,6.7l0,0c-3.7,0-6.7-3-6.7-6.7l0,0c0-3.6,2.9-6.6,6.5-6.6   C107.1,11.9,110.1,14.8,110.1,18.6z M98.6,17.5c-0.1,2.2,0.7,4.3,2.1,6c1.4,1.7,3.9,2,5.7,0.7c0.8-0.7,1.5-1.6,1.9-2.6   c0.8-2.9-0.2-6.1-2.4-8.2c-1.7-1.5-4.3-1.3-5.8,0.4c-0.1,0.1-0.1,0.1-0.2,0.2C99,14.9,98.6,16.2,98.6,17.5L98.6,17.5z"></path>
	<path id="Path_225" class="st0" d="M130.9,11.9c3.7,0.1,6.6,3.1,6.6,6.8c-0.1,3.7-3.1,6.6-6.8,6.6c-3.7,0-6.6-3.1-6.6-6.8v-0.1   C124.1,14.7,127.2,11.8,130.9,11.9C130.8,11.9,130.8,11.9,130.9,11.9z M135.7,19.3c0-2.3-0.8-4.3-2.4-5.9c-0.8-0.9-2.2-1.4-3.4-1.2   c-1.7,0.2-3,1.3-3.6,2.9c-1,3-0.3,6.3,2,8.5c1.6,1.5,4,1.6,5.6,0.1C135,22.6,135.7,21,135.7,19.3L135.7,19.3z"></path>
	<path id="Path_226" class="st0" d="M222,22.3c-0.2,0.9-0.4,1.9-0.7,2.8h-8.4v-0.1c0.1,0,0.2-0.1,0.2-0.1c0.8-0.2,0.9-0.4,1-1.1   c0.1-0.8,0.1-1.6,0.1-2.3v-7c0-0.4,0-0.8-0.1-1c0-0.5-0.4-0.9-0.8-0.9c-0.1,0-0.2-0.1-0.3-0.1v-0.2h7.4c0.1,0.9,0.2,2,0.2,3.1h-0.1   c0-0.1-0.1-0.2-0.1-0.4c0-0.2-0.1-0.5-0.1-0.7c-0.1-1-1-1.8-2.1-1.8c-0.8,0-1.5,0-2.3,0.1c-0.1,0-0.2,0.2-0.2,0.2v5.7l0.1,0.1   l2.2-0.1l1.2-0.1c0.7-0.1,0.8-0.3,0.9-0.9c0-0.2,0.1-0.4,0.1-0.6h0.1v3.8h-0.1c-0.1-0.2-0.1-0.4-0.1-0.6c-0.1-0.8-0.4-1-1.1-1.1   c-1.1-0.1-2.2-0.2-3.3-0.2V20c0,1.2,0,2.4,0,3.7c-0.1,0.6,0.4,1,0.9,1.1h0.1c1,0.2,2,0.1,3-0.2c0.8-0.3,1.6-0.9,1.8-1.8   C221.8,22.7,221.9,22.5,222,22.3C221.9,22.3,222,22.3,222,22.3z"></path>
	<path id="Path_227" class="st0" d="M176.5,20.7l-0.1-0.5c-0.1-0.8-0.4-1.1-1.1-1.1c-1-0.1-2.1-0.1-3.1-0.2c-0.1,0-0.1,0-0.2,0v2.5   c0,0.8,0,1.6,0.1,2.3c0,0.6,0.4,1,0.9,1.1h0.1c0.9,0.2,1.9,0.1,2.8-0.1c0.9-0.2,1.7-0.9,2-1.9c0.1-0.2,0.1-0.4,0.2-0.5   c0.1,0,0.1,0,0.2,0c-0.2,0.9-0.4,1.9-0.6,2.8h-8.4v-0.1c0.1-0.1,0.3-0.1,0.4-0.1c0.4,0,0.8-0.4,0.8-0.8c0.1-0.8,0.1-1.5,0.2-2.3   v-7.5c0-0.4,0-0.8-0.1-1c0-0.5-0.4-0.9-0.8-0.9c-0.1,0-0.2-0.1-0.2-0.1v-0.1h7.4c0.1,0.9,0.2,2,0.2,3.1c-0.1,0-0.1,0-0.2,0   c0-0.1-0.1-0.2-0.1-0.4c0-0.2-0.1-0.4-0.1-0.6c-0.1-1.1-1-1.9-2.2-1.9c-0.8,0-1.6,0-2.4,0v6.1h0.8c0.8,0,1.7-0.1,2.4-0.2   c0.8-0.1,0.9-0.3,1-1c0-0.2,0.1-0.3,0.2-0.5v3.8L176.5,20.7z"></path>
	<path id="Path_228" class="st0" d="M81.8,12.2h4.3c0,0,0,0,0,0.1c-0.1,0-0.2,0.1-0.3,0.1c-0.9,0.2-1.1,0.5-1.2,1.5   c-0.1,0.9-0.2,1.9-0.2,2.9c0,1.4,0,2.8,0.1,4.2c0,1.2,0.5,2.3,1.3,3.1c1.9,1.5,4.6,1.2,6.1-0.7c0.4-0.5,0.7-1,0.8-1.7   c0.2-0.8,0.3-1.7,0.2-2.5c0-1.6,0-3.3-0.1-4.9c0.1-0.9-0.7-1.8-1.6-1.9c-0.1,0-0.1,0-0.2,0c0,0-0.1,0-0.1-0.1h4.1v0.1l-0.2,0.1   c-0.8,0.1-1.5,0.8-1.5,1.8c-0.1,0.4-0.1,0.8-0.1,1.2c0,1.7,0,3.3,0,5c0.1,1.9-0.8,3.6-2.4,4.4c-1.8,1-4,0.9-5.8-0.1   c-1.3-0.8-2.2-2.3-2-3.9c0-1.9,0-3.7,0-5.5c0-0.6,0-1-0.1-1.6c-0.1-0.8-0.2-0.9-0.9-1.1c-0.1,0-0.1,0-0.2-0.1   C81.8,12.3,81.8,12.3,81.8,12.2z"></path>
	<path id="Path_229" class="st0" d="M68.6,15.2c0.1-1,0.2-2.1,0.2-3.1c3.4,0.4,6.9,0.4,10.2,0c-0.1,1.1-0.1,2.2-0.2,3.3h-0.1   c0-0.2-0.1-0.5-0.1-0.8c0-1.1-0.9-2-2-2l0,0c-0.7-0.1-1.3-0.1-2.1-0.1v1.2c0,2.8,0,5.6,0,8.5c0,0.5,0.1,0.9,0.1,1.3   c0,0.7,0.5,1.1,1.1,1.1c0.2,0,0.4,0.1,0.6,0.2h-5v-0.1c0.2,0,0.4-0.1,0.6-0.1c0.6,0,0.9-0.5,1-1c0.1-0.9,0.2-2,0.2-2.9   c0-2.5,0-5.1,0-7.6c0-0.2,0-0.5,0-0.8c-0.8,0.1-1.7,0.1-2.4,0.2c-0.8,0.2-1.4,0.8-1.6,1.6c-0.1,0.3-0.2,0.6-0.3,0.8L68.6,15.2z"></path>
	<path id="Path_230" class="st0" d="M120.3,14.9c0-0.1-0.1-0.1-0.1-0.2c-0.1-0.2-0.1-0.4-0.2-0.6c-0.3-1.3-1.5-2.1-2.8-1.8   c-0.2,0-0.3,0.1-0.5,0.2c-0.8,0.3-1.4,1-1.4,1.9c-0.1,1,0.4,2,1.2,2.6c0.7,0.5,1.4,0.8,2.1,1.3c0.8,0.5,1.4,1.1,1.7,1.9   c0.6,1.3,0.2,2.9-0.8,3.9c-1,0.9-2.5,1.4-3.9,1.2c-0.6-0.1-1.1-0.2-1.7-0.4c-0.1,0-0.2,0-0.4-0.1c-0.1-1-0.2-2.1-0.3-3.1h0.1   l0.1,0.2c0.2,0.5,0.3,0.9,0.5,1.4c0.4,1.2,1.6,1.9,2.8,1.6c0.2,0,0.4,0,0.6-0.1c0.8-0.1,1.6-0.7,1.9-1.5c0.4-1,0.1-2.2-0.7-3   c-0.4-0.4-0.8-0.7-1.1-0.9c-0.6-0.4-1.1-0.7-1.7-1c-2.3-1.7-2-4.7,0.5-6c1-0.6,2.3-0.7,3.3-0.3c0.2,0,0.4,0.1,0.6,0.1   C120.1,13.1,120.2,14,120.3,14.9L120.3,14.9z"></path>
	<path id="Path_231" class="st0" d="M52.7,25.1h-4.3V25c0.1,0,0.1-0.1,0.2-0.1c0.8-0.2,0.9-0.4,1-1.1c0.1-0.7,0.1-1.2,0.1-1.9   c0-2.6,0-5.3,0-7.9c0-0.2,0-0.4-0.1-0.6c-0.1-0.8-0.3-0.8-1-1c-0.1,0-0.2,0-0.2-0.1c0,0,0,0,0-0.1h4.3c0,0,0,0,0,0.1   c-0.1,0-0.3,0.1-0.4,0.1c-0.6,0.1-0.9,0.5-0.9,1c-0.1,0.6-0.1,1.2-0.1,1.9c0,2.4,0,5,0,7.4c0,0.4,0.1,0.8,0.1,1.2   c0.1,0.6,0.5,0.9,1,1C52.5,25,52.6,25,52.7,25.1C52.7,25,52.7,25.1,52.7,25.1z"></path>
	<path id="Path_232" class="st0" d="M116.8,34.9v4.5h-1v-6.9l4.7,5v-4.4h1V40L116.8,34.9z"></path>
	<path id="Path_233" class="st0" d="M172.2,32.9c1.9,0,3.4,1.5,3.4,3.4s-1.5,3.4-3.4,3.4s-3.4-1.5-3.4-3.4S170.3,32.9,172.2,32.9z    M174.6,36.2c0-1.3-1-2.3-2.3-2.4c0,0,0,0-0.1,0c-1.3,0-2.4,1.1-2.4,2.4l0,0c0,1.3,1,2.3,2.3,2.4c0,0,0,0,0.1,0   C173.5,38.7,174.6,37.6,174.6,36.2L174.6,36.2z"></path>
	<path id="Path_234" class="st0" d="M132.9,36.4v3h-1V33h1v2.4h2.8v-2.5h0.9v6.5h-0.9v-3C134.8,36.4,134,36.4,132.9,36.4z"></path>
	<path id="Path_235" class="st0" d="M159.3,39.4c-0.4,0-0.8,0-1,0c-0.2,0-0.3-0.1-0.4-0.2c-0.5-0.7-1-1.4-1.5-2.1   c-0.1-0.1-0.2-0.2-0.2-0.3h-0.1v2.6h-1v-6.5c0.9-0.2,1.9,0,2.8,0.4c0.6,0.4,0.9,1,0.8,1.7c0,0.7-0.4,1.3-1,1.6   c-0.1,0.1-0.3,0.1-0.4,0.2C158,37.7,158.6,38.5,159.3,39.4z M156.1,36c0.6,0.1,1.1-0.1,1.5-0.5c0.2-0.4,0.2-0.8,0-1.1   c-0.4-0.4-0.9-0.6-1.5-0.4V36z"></path>
	<path id="Path_237" class="st0" d="M193.1,36.7c0.7,0.9,1.3,1.8,2,2.7c-0.5,0-0.8,0-1.1,0c-0.1,0-0.2-0.1-0.3-0.2   c-0.5-0.8-1-1.4-1.5-2.1c-0.1-0.1-0.2-0.2-0.4-0.3v2.6h-1v-6.5c0.8-0.1,1.8,0,2.6,0.2c0.7,0.3,1,0.9,1,1.6c0,0.8-0.4,1.4-1,1.7   C193.4,36.6,193.2,36.6,193.1,36.7z M191.9,33.9V36c0.6,0,1.1,0,1.5-0.5c0.3-0.3,0.3-0.8,0-1.1C193,33.8,192.5,33.9,191.9,33.9   L191.9,33.9z"></path>
	<path id="Path_238" class="st0" d="M196,39.4c1.1-2.3,2.2-4.6,3.2-6.9c1,2.3,2.1,4.6,3.1,6.9c-0.3,0-0.7,0-1,0   c-0.1,0-0.2-0.1-0.2-0.2c-0.2-0.4-0.3-0.7-0.5-1c0-0.2-0.2-0.3-0.4-0.3c-0.8,0-1.5,0-2.3,0c-0.2,0-0.3,0.1-0.4,0.2   c-0.1,0.2-0.2,0.4-0.2,0.5C197.1,39.5,197.1,39.5,196,39.4z M199.2,34.7c-0.4,0.8-0.7,1.4-1,2.1h1.9   C199.8,36.2,199.5,35.5,199.2,34.7z"></path>
	<path id="Path_239" class="st0" d="M153.6,39.4L153.6,39.4c-1,0.1-1,0.1-1.4-0.8c-0.3-0.8-0.3-0.8-1.1-0.8h-1.6   c-0.2,0-0.4,0.1-0.5,0.3c-0.1,0.3-0.3,0.7-0.4,0.9s-0.3,0.4-0.6,0.4l0,0c-0.3,0-0.5,0-0.8,0c1.1-2.3,2.2-4.6,3.2-6.9   C151.4,34.8,152.5,37.1,153.6,39.4z M150.4,34.7c-0.4,0.8-0.7,1.4-1,2.2h1.9C151.1,36.2,150.8,35.6,150.4,34.7L150.4,34.7z"></path>
	<path id="Path_240" class="st0" d="M80.3,32.6c1,2.3,2.1,4.6,3.1,6.9c-0.3,0-0.7,0-0.9,0c-0.1,0-0.2-0.1-0.3-0.2   c-0.2-0.4-0.3-0.8-0.5-1.1c-0.1-0.1-0.2-0.2-0.4-0.2c-0.8,0-1.5,0-2.3,0c-0.1,0-0.3,0.1-0.4,0.2c-0.2,0.3-0.3,0.6-0.4,0.9   c-0.1,0.3-0.4,0.5-0.7,0.5l0,0c-0.2,0-0.4,0-0.7,0C78.1,37.2,79.2,34.8,80.3,32.6z M80.3,34.7c-0.4,0.8-0.7,1.4-1,2.2h1.9   C80.9,36.2,80.5,35.5,80.3,34.7z"></path>
	<path id="Path_241" class="st0" d="M139,39.4V33h3.6v0.9h-2.5v1.6h2.4v0.9h-2.4v2.2h2.5v0.9C141.4,39.4,140.3,39.4,139,39.4z"></path>
	<path id="Path_242" class="st0" d="M65.8,39.4h-3.6V33h3.6v0.8h-2.5v1.6h2.4v0.9h-2.4v2.2h2.5C65.8,38.8,65.8,39.2,65.8,39.4z"></path>
	<path id="Path_243" class="st0" d="M213.5,38.5v0.9h-3.6V33h3.6v0.9H211v1.5h2.4v0.9H211v2.2C211.7,38.5,212.6,38.5,213.5,38.5z"></path>
	<path id="Path_244" class="st0" d="M50.8,37.7c0.4-0.1,0.7-0.1,0.9-0.2c0,0.1,0.1,0.3,0.1,0.4c0.1,0.5,0.6,0.8,1,0.8s0.8-0.3,1-0.8   c0.2-0.5,0-1-0.5-1.2c-0.4-0.2-0.8-0.3-1-0.5c-0.4-0.2-0.7-0.4-0.9-0.7c-0.6-0.6-0.6-1.5,0-2.1c0.8-0.8,2-0.8,2.8-0.1   c0.2,0.2,0.4,0.4,0.5,0.7c-0.2,0.1-0.5,0.3-0.8,0.5c-0.2-0.5-0.8-0.8-1.3-0.6c-0.3,0.1-0.6,0.4-0.7,0.7c0,0.3,0.1,0.6,0.4,0.8   c0.4,0.2,0.8,0.4,1.2,0.6c1,0.5,1.5,1.6,1,2.6c-0.2,0.4-0.4,0.7-0.7,0.8c-0.7,0.5-1.5,0.6-2.3,0.2C51.3,39.1,50.9,38.4,50.8,37.7z"></path>
	<path id="Path_245" class="st0" d="M103.1,37.7c0.3-0.1,0.7-0.1,0.9-0.2c0,0.2,0.1,0.3,0.1,0.5c0.1,0.5,0.6,0.8,1,0.8   c0.5,0,0.9-0.3,1-0.8c0.2-0.5,0-0.9-0.4-1.1c-0.5-0.2-0.9-0.4-1.3-0.7c-0.7-0.3-1-0.9-1-1.6c0-0.4,0.2-0.8,0.5-1.1   c0.8-0.8,2.1-0.8,2.9,0.1c0.1,0.2,0.3,0.3,0.4,0.5c-0.2,0.1-0.5,0.3-0.8,0.5c-0.2-0.5-0.8-0.8-1.3-0.6c-0.4,0.1-0.6,0.4-0.7,0.7   c0,0.3,0.2,0.7,0.5,0.8c0.5,0.2,1,0.4,1.4,0.7c0.8,0.4,1.1,1.1,0.9,2c-0.1,0.8-0.7,1.5-1.4,1.7c-1.1,0.4-2.3-0.2-2.7-1.3   C103.2,38,103.1,37.8,103.1,37.7z"></path>
	<path id="Path_246" class="st0" d="M92.4,37.7c0.4-0.1,0.7-0.1,0.9-0.2c0,0.1,0.1,0.2,0.1,0.4c0.1,0.5,0.6,0.8,1,0.8   c0.5,0,0.9-0.3,1-0.8c0.2-0.5,0-1-0.5-1.2c-0.4-0.2-0.8-0.4-1.1-0.5c-0.9-0.5-1.3-1-1.2-1.9c0.1-0.5,0.4-0.9,0.8-1.1   c0.9-0.7,2.2-0.4,2.8,0.6c0.1,0.1,0.1,0.2,0.1,0.3c-0.2,0.1-0.5,0.3-0.8,0.5c-0.1-0.1-0.2-0.2-0.2-0.3c-0.4-0.4-1-0.5-1.4-0.1   c-0.3,0.2-0.4,0.7-0.2,0.9c0.1,0.1,0.1,0.1,0.2,0.2c0.3,0.2,0.5,0.3,0.8,0.4s0.7,0.3,0.9,0.5c0.8,0.5,1,1.3,0.8,2.1   c-0.2,0.8-0.8,1.4-1.7,1.5c-1.1,0.3-2.2-0.5-2.4-1.6C92.4,37.9,92.4,37.7,92.4,37.7z"></path>
	<path id="Path_247" class="st0" d="M72.7,34.5c-1.7-0.9-2.7-0.8-3.6,0.2c-0.8,0.9-0.8,2.3,0,3.2c0.8,1,2,1.1,3.6,0.2v1   c0,0.1-0.1,0.2-0.2,0.2c-1.2,0.7-2.7,0.5-3.8-0.5c-1-0.9-1.4-2.3-0.9-3.7c0.5-1.3,1.7-2.2,3.1-2.2c0.5,0,1,0.1,1.5,0.3   c0.3,0,0.4,0.3,0.4,0.5l0,0V34.5z"></path>
	<path id="Path_248" class="st0" d="M56.9,32.9c0.8,0,1.5,0,2.3,0.1c0.8,0.2,1.5,0.9,1.4,1.9c0,0.9-0.7,1.7-1.5,1.9   c-0.4,0.1-0.8,0.1-1.1,0.1v2.6h-1L56.9,32.9L56.9,32.9z M57.8,33.8v1.3c0,0.8,0.1,0.8,0.8,0.7c0.1,0,0.2,0,0.2-0.1   c0.4-0.1,0.7-0.5,0.7-0.9c0-0.4-0.3-0.8-0.7-0.8C58.6,33.9,58.2,33.9,57.8,33.8L57.8,33.8z"></path>
	<path id="Path_249" class="st0" d="M177.5,33h3.2v0.9h-2.3v1.5h2.1v0.9h-2.2v3.1h-0.9C177.5,37.3,177.5,35.1,177.5,33z"></path>
	<path id="Path_250" class="st0" d="M186.8,33.9h-1.5V33h3.9v0.9h-1.5v5.5h-1L186.8,33.9z"></path>
	<path id="Path_251" class="st0" d="M162.7,33.9v5.5h-1v-5.5h-1.5V33h3.9v0.9H162.7z"></path>
	<path id="Path_252" class="st0" d="M99.3,33.9h-1.5V33h3.9v0.9h-1.5v5.5h-1C99.3,37.6,99.3,35.8,99.3,33.9z"></path>
	<path id="Path_253" class="st0" d="M128.9,39.4h-1v-5.5h-1.5V33h3.9v0.8h-1.5L128.9,39.4z"></path>
	<path id="Path_254" class="st0" d="M215.5,33h0.9v5.5h1.9v0.9h-2.8C215.5,37.3,215.5,35.1,215.5,33z"></path>
	<path id="Path_255" class="st0" d="M87.8,39.4H85V33h0.9v5.5h1.9V39.4z"></path>
	<path id="Path_256" class="st0" d="M112.6,33h0.9v6.5h-0.9V33z"></path>
	<path id="Path_257" class="st0" d="M89.5,33h0.9v6.5h-0.9V33z"></path>
	<path id="Path_258" class="st0" d="M75.6,39.4c-0.1,0-0.2,0-0.3,0h-0.7V33h0.9V39.4z"></path>
	<path id="Path_286" class="st1" d="M228.1,12.4c0.8-0.2,1.5-0.2,2.3,0c0.7,0.2,1.1,0.7,1.3,1.3c0.3,0.9,0.4,1.9,0.1,2.8   c-0.2,0.8-0.7,1.3-1.4,1.6s-1.5,0.4-2.3,0.2V12.4z"></path>
	<path id="Path_287" class="st1" d="M59,12.4c0.8-0.2,1.6-0.2,2.3,0.1c0.6,0.2,1,0.7,1.2,1.2c0.4,0.9,0.4,2,0.1,2.9   c-0.2,0.8-0.8,1.3-1.5,1.6c-0.8,0.3-1.5,0.3-2.3,0.2C59,16.4,59,14.5,59,12.4z"></path>
	<path id="Path_288" class="st1" d="M203.1,18.3c0.8-0.2,1.8-0.1,2.6,0.2c0.8,0.3,1.5,0.9,1.7,1.8c0.3,0.9,0.4,1.9,0,2.8   c-0.5,1.3-1.8,2.2-3.2,1.8c-0.5-0.1-0.8-0.5-0.9-0.9c-0.1-0.7-0.2-1.2-0.3-1.9C203.1,20.8,203.1,19.6,203.1,18.3z"></path>
	<path id="Path_289" class="st1" d="M203.1,18v-5.5c1.1-0.4,2.3,0,3,0.9c0.8,1,0.8,2.3,0.2,3.5C205.5,17.8,204.3,18.3,203.1,18z"></path>
	<path id="Path_290" class="st1" d="M98.6,17.5c0-1.3,0.5-2.5,1.2-3.6c1.4-1.8,3.9-2.2,5.8-0.8c0.1,0.1,0.2,0.1,0.2,0.2   c2.3,2.1,3.2,5.2,2.4,8.2c-0.3,1-0.9,2-1.9,2.6c-1.8,1.4-4.3,1.1-5.7-0.7C99.2,21.8,98.5,19.6,98.6,17.5z"></path>
	<path id="Path_291" class="st1" d="M135.7,19.3c0.1,1.7-0.6,3.3-1.9,4.4c-1.6,1.5-4.1,1.5-5.6-0.1c-2.3-2.3-3-5.5-2-8.5   c0.6-1.6,2-2.6,3.6-2.9c1.2-0.2,2.5,0.3,3.4,1.2C134.7,15,135.7,17.2,135.7,19.3z"></path>
	<path id="Path_292" class="st1" d="M174.6,36.2c0.1,1.3-0.9,2.4-2.3,2.4c-1.3,0.1-2.4-0.9-2.4-2.3c0-0.1,0-0.1,0-0.2   c0-1.3,1-2.4,2.3-2.4c0,0,0,0,0.1,0C173.5,33.8,174.6,34.8,174.6,36.2C174.6,36.2,174.6,36.2,174.6,36.2z"></path>
	<path id="Path_293" class="st1" d="M156.1,36v-2c0.6-0.1,1.1,0,1.5,0.4c0.3,0.4,0.3,0.8,0,1.1C157.3,36,156.7,36,156.1,36z"></path>
	<path id="Path_294" class="st1" d="M191.9,33.9c0.6,0,1.1-0.1,1.5,0.5c0.3,0.3,0.3,0.8,0,1.1c-0.4,0.6-0.9,0.5-1.5,0.5V33.9z"></path>
	<path id="Path_295" class="st1" d="M199.2,34.7c0.4,0.8,0.7,1.4,0.9,2.1h-1.9C198.6,36.2,198.9,35.5,199.2,34.7z"></path>
	<path id="Path_296" class="st1" d="M150.4,34.7c0.4,0.8,0.7,1.4,0.9,2.2h-1.9C149.8,36.2,150.1,35.5,150.4,34.7z"></path>
	<path id="Path_297" class="st1" d="M80.3,34.7c0.4,0.8,0.7,1.4,0.9,2.2h-1.9C79.6,36.2,79.9,35.5,80.3,34.7z"></path>
	<path id="Path_298" class="st1" d="M57.8,33.8c0.4,0.1,0.8,0.1,1,0.1c0.4,0.1,0.7,0.5,0.7,0.8c0,0.5-0.2,0.8-0.7,0.9   c-0.1,0-0.1,0-0.2,0.1c-0.8,0.2-0.8,0.1-0.8-0.7C57.8,34.7,57.8,34.4,57.8,33.8z"></path>
	<path id="Path_236" class="st0" d="M10.2,37.1c-0.1-0.2-0.2-0.4-0.3-0.6c-0.2,0.3-0.3,0.7-0.6,0.9c-0.4,0-0.4-0.1-0.2-0.6   C9,36.8,9,36.5,8.7,36.6c0,0-0.2-0.3-0.3-0.4c-0.3-0.4-0.3-0.9-0.8-1.2c0,0,0-0.2,0-0.3C7.8,34.6,8,34.5,8,34.4   c0.1-0.4,0.3-0.8,0.8-0.9c0.3-0.2,0.8-0.3,1.1-0.3c0.1,0,0.2-0.1,0.3-0.2c0.2-0.1,0.3-0.2,0.6-0.2c0.4,0,0.8,0.2,0.8,0.8   c0,0.3,0,0.5,0.1,0.8c0,0.1,0,0.3,0.1,0.3c0.2,0.3,0.1,0.3-0.1,0.5c-0.2,0.1-0.3,0.3-0.3,0.4c0.1,0.6-0.3,1-0.8,1.3   C10.3,36.8,10.3,37,10.2,37.1z"></path>
	<path id="Path_259" class="st1" d="M14.6,20.1c1.6,0.3,3.1,0.3,4.7,0.1c0.2,0,0.3,0,0.4,0.1c0.9,0.5,1.7,1.2,2.3,2.2   c0.2,0.3,0.3,0.7,0.5,0.9c0.1,0.2,0,0.3-0.2,0.4c-1.1,0.2-2.3,0.3-3.6,0.6c-0.1,0-0.3-0.1-0.3-0.2c-1.3-1.1-2.8-2.1-4.3-2.7   c-0.3-0.1-0.5-0.5-0.4-0.8c0.1-0.1,0.2-0.3,0.3-0.3C14.3,20.2,14.4,20.1,14.6,20.1z"></path>
	<path id="Path_260" class="st1" d="M24.3,18.1c-0.8,0.4-1.6,0.8-2.4,0.9c-0.6,0.3-1.3,0.2-1.8-0.3c-1.4-0.9-2.9-1.6-4.4-2.2   c-0.1-0.1-0.3-0.1-0.3-0.2c0-0.2,0.1-0.3,0.1-0.5c0.1-0.2,0.3-0.3,0.3-0.4c0.1-0.3,0.3-0.3,0.6-0.3c0.9-0.2,1.9-0.3,2.8-0.5   c0.2-0.1,0.3-0.1,0.4,0c1.5,0.8,2.9,1.6,4.2,2.6C23.8,17.7,24,17.8,24.3,18.1z"></path>
	<path id="Path_261" class="st1" d="M11.4,20.4c-0.9-0.2-1.7-0.3-2.5-0.4c-1.7-0.3-3.6-0.3-5.3,0.3c-0.3,0.1-0.7,0.3-0.9,0.4   c-0.1,0-0.3,0.1-0.3,0c-0.7-0.3-1.2-0.9-1.7-1.5c-0.4-0.5-0.4-1.3,0.2-1.7c0.1-0.1,0.2-0.2,0.3-0.2c0.4-0.3,0.9-0.4,1.4-0.5   c0.1,0,0.2,0,0.3,0.1c2.5,1.4,5.4,2.3,8.1,2.9C11.5,19.7,11.6,19.7,11.4,20.4z"></path>
	<path id="Path_262" class="st1" d="M11.5,27.6c0.2-0.6,0.3-1,0.5-1.6c0.1,0.1,0.1,0.1,0.2,0.7c0-0.2,0.1-0.3,0.2-0.6   c0.3,0.3,0.7,0.6,0.9,0.8s0.2,0.5-0.3,0.8c0.3,0.2,0.7,0.1,0.9-0.2c0.3-0.3,0.4-0.7,0.2-0.9c-0.3-0.4-0.7-0.8-0.9-1.1   c-0.1-0.1-0.3-0.2-0.6-0.4c0.2,0,0.3-0.1,0.4-0.2c-0.1-0.3,0.1-0.3,0.3-0.3l4.3,0.3c0.1,0,0.2,0,0.3,0.1c0.6,0.6,0.9,1.2,1,2.1   c0.1,0.3,0,0.4-0.3,0.5c-2.3,0.7-4.8,0.8-7,0.3C11.5,27.8,11.5,27.7,11.5,27.6L11.5,27.6z"></path>
	<path id="Path_263" class="st1" d="M12.8,15.3c-0.1,0.2-0.2,0.3-0.3,0.4c-0.8-0.2-1.6-0.4-2.4-0.5c-2.5-0.5-5.3-0.4-7.8,0.2   c-0.1,0-0.3-0.1-0.4-0.1l0,0c-1.3-0.9-1.1-2.3,0.3-2.9c0.3-0.1,0.4-0.2,0.7-0.3c0.7-0.3,1.4-0.2,1.9,0.3C6,13.3,7.5,14.1,9,14.5   c1,0.3,2.3,0.5,3.4,0.8C12.5,15.2,12.7,15.2,12.8,15.3z"></path>
	<path id="Path_264" class="st1" d="M14.2,10.6C14.1,10.8,14,11,14,11.2c-1-0.2-2.1-0.4-3-0.6c-2.3-0.4-4.6-0.4-6.9-0.1   c-0.2,0.1-0.3,0-0.3-0.2v-0.1C3.6,9.7,3.9,9.1,4.3,8.7C4.9,8.4,5.6,8.1,6.4,8c1-0.2,2.1-0.2,3.1-0.3c0.1,0,0.3,0.1,0.3,0.2   c0.7,0.9,1.6,1.7,2.8,2.1C12.9,10.3,13.5,10.4,14.2,10.6z"></path>
	<path id="Path_265" class="st1" d="M13.5,12.7c0,0.2-0.1,0.3-0.2,0.4l-0.2,0.7c0,0.1-0.1,0.2-0.1,0.3c-0.2,0.1-0.3,0.3-0.2,0.4   c0,0.3-0.2,0.3-0.4,0.3c-1.6-0.3-3.4-0.7-4.9-1.3c-0.9-0.4-2-0.9-2.9-1.6C7.7,11.5,10.7,11.7,13.5,12.7z"></path>
	<path id="Path_266" class="st1" d="M3.6,16.4c2.9-0.4,5.8-0.3,8.6,0.6c-0.2,0.8-0.3,1.5-0.4,2.2C8.8,18.7,6.1,17.7,3.6,16.4z"></path>
	<path id="Path_267" class="st1" d="M17,12.3c0.1-0.5,0.2-0.9,0.3-1.3c0.2-0.4,0.3-0.9,0.5-1.3c1.6,0.6,3.2,1.4,4.7,2.3   c-0.2,0.2-0.3,0.3-0.4,0.5c-0.3,0.3-0.5,0.4-0.8,0.7c-0.6,0.6-1.5,0.7-2.2,0.3C18.6,13,17.8,12.6,17,12.3z"></path>
	<path id="Path_268" class="st1" d="M23.2,12.3c0.9,0.5,1.7,1.2,2.3,2.1c0.5,0.7,0.7,1.6,0.3,2.3c-0.2,0.3-0.3,0.6-0.6,0.8   c-1.2-1.3-2.7-2.4-4.3-3.3C21.8,13.5,22.5,13,23.2,12.3z"></path>
	<path id="Path_269" class="st1" d="M10.7,24.2c-0.4-0.1-0.9-0.2-1.3-0.3c-0.9-0.2-2.1-0.2-3,0c-0.8,0.2-1.5,0.8-1.7,1.6   c-0.2-0.1-0.3-0.2-0.6-0.3c-0.7-0.4-1.2-0.9-1.7-1.6c-0.5-0.6-0.4-1.5,0.2-2l0.1-0.1c0.2-0.1,0.3-0.1,0.4,0   c2.3,0.9,4.8,1.8,7.2,2.3c0.1,0,0.3,0.1,0.4,0.1C10.7,24.1,10.7,24.1,10.7,24.2z"></path>
	<path id="Path_270" class="st1" d="M23.5,23.4c-0.3-1.4-0.9-2.6-2-3.6c1-0.4,2.2-0.8,3.2-1.1c0.7,0.6,1,1.5,0.9,2.3   C25.2,22.1,24.5,23,23.5,23.4z"></path>
	<path id="Path_271" class="st1" d="M3.7,21.3c1-0.3,2.2-0.4,3.2-0.3c1.3,0.2,2.6,0.4,3.9,0.7c0.4,0.1,0.4,0.2,0.3,0.6   c-0.1,0.4-0.2,0.9-0.3,1.4C8.3,23,6,22.3,3.7,21.3z"></path>
	<path id="Path_272" class="st1" d="M5.2,25.8c0.1-0.5,0.4-0.8,0.9-0.9c0.6-0.1,1.1-0.2,1.7-0.1c0.8,0.1,1.6,0.3,2.4,0.4   c-0.1,0.8-0.2,1.6-0.3,2.3C8.4,27.2,6.8,26.7,5.2,25.8z"></path>
	<path id="Path_273" class="st1" d="M16.4,5.5c-0.3,0.7-0.6,1.1-0.8,1.6c-0.1,0.1-0.3,0.1-0.3,0.1c-1.2-0.2-2.4-0.4-3.8-0.7   c-0.4,0-0.8-0.1-1.1-0.2c0.3-0.2,0.5-0.4,0.8-0.6c0.8-0.4,1.6-0.6,2.4-0.6C14.5,5.3,15.4,5.4,16.4,5.5z"></path>
	<path id="Path_274" class="st1" d="M11.5,27.6c-0.1,0.3-0.2,0.6-0.2,0.9c1.2,0.1,2.3,0.2,3.6,0.3c1.1,0,2.3-0.2,3.6-0.5   c0,0,0,0.1,0.1,0.1c-0.4,0.3-0.8,0.6-1.2,0.8c-1.4,0.6-2.9,0.8-4.5,0.8c-0.7,0-1.2-0.1-1.9-0.2c0.3-0.9,0.4-1.7,0.7-2.6h0.1   C11.5,27.2,11.5,27.4,11.5,27.6L11.5,27.6z"></path>
	<path id="Path_275" class="st1" d="M22.8,10.3c-1.4-0.7-2.9-1.4-4.2-2.1c0.2-0.5,0.4-1,0.7-1.6C20.9,7.2,22.2,8.5,22.8,10.3z"></path>
	<path id="Path_276" class="st1" d="M10.4,7.9c1.5,0.3,3,0.5,4.6,0.8c-0.3,0.7-0.4,1.1-0.7,1.7c-1.6-0.3-2.9-1-3.9-2.3   C10.4,8,10.4,8,10.4,7.9z"></path>
	<path id="Path_277" class="st1" d="M19.9,27.1c0.1-0.8-0.2-1.6-0.6-2.3c1.1-0.2,2.3-0.4,3.5-0.6C22.7,25.3,21.5,26.5,19.9,27.1z"></path>
	<path id="Path_278" class="st1" d="M18.7,19.6h-4.4c0.1-0.4,0.3-0.8,0.3-0.9c0-0.2,0-0.3,0-0.4c0.1-0.1,0.3-0.3,0.3-0.3   c0-0.1,0-0.1,0-0.1C16.1,18.4,17.4,19,18.7,19.6C18.7,19.5,18.7,19.6,18.7,19.6z"></path>
	<path id="Path_279" class="st1" d="M5.3,26.7c1.6,0.6,3.2,1,4.8,1.6c0,0.3-0.1,0.7-0.2,1.1C8.2,29,6.5,28.1,5.3,26.7z"></path>
	<path id="Path_280" class="st1" d="M17,24.4c-1.3-0.1-2.5-0.3-3.9-0.3c0.2-0.4,0.3-0.8,0.4-1.1H13c0.3-0.2,0.5-0.4,0.8-0.3   c1.1,0.6,2.3,1,3.4,1.6C17,24.2,17,24.3,17,24.4z"></path>
	<path id="Path_281" class="st1" d="M16.6,13.6c0.7,0.3,1.2,0.5,1.8,0.8v0.2c-0.9,0.2-1.7,0.3-2.6,0.4C16,14.5,16.2,14.1,16.6,13.6z   "></path>
	<path id="Path_282" class="st1" d="M10.3,29.5c0.1-0.3,0.2-0.7,0.3-0.9l0,0c0.2-0.9,0.4-1.9,0.7-2.9h0.1c0,0.1,0,0.2,0,0.3   c-0.1,0.3-0.2,0.7-0.2,0.9c0,0.3,0,0.5,0,0.8c0,0.2,0,0.3-0.1,0.4c-0.3,0.3-0.3,0.8-0.3,1.1C10.7,29.6,10.7,29.6,10.3,29.5z"></path>
	<path id="Path_283" class="st1" d="M11.3,24.5c0.2-0.9,0.4-1.7,0.6-2.6C12,22.8,11.8,23.8,11.3,24.5z"></path>
	<path id="Path_284" class="st1" d="M12.3,24.9c-0.1-0.4,0-0.8,0.2-1.1c0.1,0,0.1,0,0.1,0C12.5,24.1,12.4,24.5,12.3,24.9   C12.4,25,12.3,25,12.3,24.9z"></path>
	<path id="Path_285" class="st1" d="M12.9,22.3c-0.1,0.4-0.2,0.8-0.3,1.2c-0.1-0.1-0.2-0.1-0.2-0.1C12.6,23.1,12.8,22.8,12.9,22.3z"></path>
	<path id="Path_299" class="st0" d="M20.1,0v0.3c0.3,0.2,0.4,0.4,0.3,0.8c-0.2,0.4-0.3,0.9-0.2,1.3c0,0.6-0.3,1-0.3,1.6   c-0.1,0.4-0.2,0.8-0.3,1.1c-0.1,0.2,0,0.3,0.3,0.4c1,0.6,2.1,1.3,2.8,2.3c0.8,0.8,1,1.9,1,2.9c0,0.1,0.1,0.2,0.2,0.3   c0.8,0.6,1.5,1.2,2.2,1.9c1.2,1.1,1.3,3,0.2,4.2c-0.1,0.1-0.3,0.3-0.3,0.3c-0.1,0.1-0.2,0.1-0.3,0.2L26,18c0.9,1.6,0.6,3.7-0.9,4.8   c-0.4,0.3-0.9,0.6-1.3,0.9c-0.1,0.1-0.2,0.2-0.3,0.3c-0.2,1-0.8,2-1.7,2.4c-0.6,0.3-1.2,0.7-1.8,0.9c-0.1,0.1-0.3,0.1-0.3,0.2   c-0.8,1-2,1.8-3.2,2.1c-1.7,0.4-3.6,0.5-5.4,0.3c-0.3,0-0.5-0.2-0.7-0.1s-0.3,0.3-0.4,0.6C10,30.5,10,30.6,10,30.7H9.9   c0-0.2,0.1-0.3,0.1-0.4c0.1-0.4,0.1-0.5-0.3-0.6c-1.5-0.3-2.9-1-3.9-2.2c-0.3-0.3-0.6-0.7-0.8-0.9c-0.2-0.3-0.4-0.6-0.8-0.8   c-0.6-0.4-1.2-0.9-1.7-1.4c-0.3-0.3-0.5-0.7-0.7-0.9c-0.5-0.8-0.3-1.9,0.4-2.4c-0.3-0.2-0.5-0.3-0.8-0.6c-0.5-0.4-0.9-0.9-1.2-1.4   c-0.8-1.3-0.3-2.3,0.9-3.1c0.2-0.1,0.3-0.2,0.4-0.3c-0.2-0.3-0.4-0.4-0.6-0.7c-0.8-0.8-0.9-2-0.2-2.8c0.2-0.2,0.3-0.3,0.5-0.4   c0.5-0.3,1-0.7,1.6-0.9c0.2-0.1,0.3-0.1,0.4-0.2c-0.5-1.5,0.3-3,1.8-3.6l0,0c1.1-0.4,2.3-0.7,3.6-0.7h0.1c0.5,0.1,0.9-0.2,1.1-0.7   c0.6-0.9,1.6-1.6,2.6-1.7c1.4-0.3,2.8-0.3,4.1,0.1c0.3,0.1,0.4,0,0.6-0.3C18,2.5,19,1.1,20.1,0C20.1,0,20.1,0,20.1,0z M11.5,27.6   v-0.5h-0.1c-0.2,0.8-0.4,1.6-0.7,2.6c0.7,0.1,1.3,0.1,1.9,0.2c1.6,0.2,3.1-0.1,4.5-0.8c0.4-0.2,0.8-0.5,1.2-0.8c0,0,0-0.1-0.1-0.1   c-1.1,0.3-2.3,0.5-3.6,0.5c-1.1,0-2.3-0.2-3.6-0.3C11.4,28.2,11.4,27.8,11.5,27.6v0.3c2.3,0.4,4.8,0.3,7-0.3c0.3,0,0.3-0.3,0.3-0.4   v-0.1c-0.2-0.8-0.5-1.5-1-2.1C17.7,25,17.6,25,17.5,25l-4.3-0.3c-0.3,0-0.4,0.1-0.3,0.3c-0.2,0.1-0.3,0.1-0.4,0.2   c0.2,0.1,0.4,0.3,0.6,0.4c0.3,0.3,0.8,0.8,0.9,1.1c0.3,0.3,0.2,0.8-0.2,0.9c-0.3,0.3-0.6,0.3-0.9,0.2c0.4-0.3,0.5-0.6,0.3-0.8   c-0.3-0.3-0.7-0.6-0.9-0.8c-0.1,0.3-0.1,0.4-0.2,0.6c0-0.6,0-0.6-0.2-0.7C11.8,26.5,11.6,27,11.5,27.6z M14.6,20.1   c-0.3,0.1-0.4,0.2-0.6,0.3c-0.3,0.2-0.3,0.6-0.2,0.9c0.1,0.1,0.2,0.2,0.3,0.3c1.6,0.7,3,1.6,4.3,2.7c0.1,0.1,0.2,0.2,0.3,0.2   c1.1-0.2,2.3-0.3,3.6-0.6c0.3,0,0.3-0.2,0.2-0.4c-0.2-0.3-0.3-0.7-0.5-0.9c-0.7-0.9-1.4-1.6-2.3-2.2c-0.2-0.1-0.3-0.1-0.4-0.1   C17.7,20.3,16.1,20.3,14.6,20.1z M24.3,18.1c-0.3-0.2-0.4-0.4-0.7-0.6c-1.3-0.9-2.7-1.9-4.2-2.6c-0.2-0.1-0.3-0.1-0.4,0   c-0.9,0.2-1.9,0.3-2.8,0.5c-0.2,0-0.4-0.1-0.6,0.3c-0.1,0.2-0.2,0.3-0.3,0.4c-0.1,0.2-0.1,0.3-0.1,0.5c0.1,0.1,0.3,0.1,0.3,0.2   c1.6,0.5,3,1.2,4.4,2.2c0.5,0.4,1.2,0.5,1.8,0.3C22.6,18.9,23.5,18.6,24.3,18.1z M11.4,20.4c0.2-0.7,0.2-0.7-0.5-0.8   c-2.9-0.6-5.5-1.6-8.1-2.9c-0.1-0.1-0.2-0.1-0.3-0.1c-0.5,0.1-0.9,0.3-1.4,0.5c-0.7,0.3-0.9,0.9-0.6,1.6c0.1,0.1,0.1,0.2,0.2,0.3   c0.4,0.7,0.9,1.1,1.7,1.5c0.1,0.1,0.2,0,0.3,0c0.3-0.1,0.6-0.3,0.9-0.4c1.7-0.5,3.6-0.6,5.3-0.3C9.8,20.1,10.6,20.2,11.4,20.4   L11.4,20.4z M12.8,15.3c-0.2,0-0.3-0.1-0.4-0.1c-1-0.3-2.3-0.4-3.4-0.8c-1.6-0.3-3.1-1-4.3-2.1c-0.5-0.5-1.2-0.6-1.9-0.3   c-0.3,0.1-0.4,0.2-0.7,0.3c-1.5,0.7-1.6,2-0.3,2.9l0,0c0.2,0.1,0.3,0.1,0.4,0.1c2.5-0.6,5.2-0.7,7.8-0.2c0.8,0.1,1.6,0.3,2.4,0.5   C12.6,15.6,12.7,15.5,12.8,15.3L12.8,15.3z M14.2,10.6c-0.6-0.2-1.1-0.3-1.7-0.6C11.3,9.8,10.3,9,9.7,8C9.6,7.9,9.5,7.8,9.4,7.8   c-1,0.1-2.1,0.1-3.1,0.3C5.5,8.2,4.9,8.4,4.2,8.8c-0.4,0.3-0.7,0.9-0.5,1.5c0,0.2,0.1,0.3,0.3,0.3c2.3-0.3,4.6-0.3,6.9,0.1   c0.9,0.2,2,0.3,3,0.6C14.1,11.1,14.2,10.9,14.2,10.6L14.2,10.6z M13.5,12.7c-2.9-0.8-5.8-1.1-8.7-0.8c0.9,0.7,1.9,1.1,2.9,1.6   c1.6,0.7,3.2,1,4.9,1.3c0.3,0,0.5,0,0.4-0.3c0-0.2,0-0.3,0.2-0.4c0.1-0.1,0.1-0.2,0.1-0.3l0.2-0.7C13.5,13,13.5,12.9,13.5,12.7   L13.5,12.7z M3.6,16.4c2.5,1.3,5.4,2.3,8.1,2.8c0.2-0.8,0.3-1.5,0.4-2.2C9.3,16.2,6.5,16.1,3.6,16.4L3.6,16.4z M17,12.3   c0.8,0.3,1.6,0.7,2.3,0.9c0.7,0.5,1.6,0.3,2.2-0.3c0.3-0.2,0.5-0.4,0.8-0.7c0.2-0.2,0.3-0.3,0.4-0.5c-1.5-0.9-3-1.7-4.7-2.3   c-0.2,0.5-0.4,0.9-0.5,1.3C17.3,11.4,17.2,11.8,17,12.3L17,12.3z M23.3,12.3c-0.8,0.7-1.5,1.1-2.3,1.8c1.6,0.8,3.1,2,4.3,3.3   c0.3-0.3,0.4-0.5,0.6-0.8c0.3-0.8,0.3-1.6-0.3-2.3C25,13.5,24.2,12.9,23.3,12.3L23.3,12.3z M10.7,24.2L10.7,24.2   c-0.1-0.1-0.3-0.2-0.4-0.2c-2.4-0.6-4.9-1.4-7.2-2.3c-0.2-0.1-0.3,0-0.4,0c-0.6,0.4-0.8,1.2-0.4,1.9c0,0.1,0.1,0.1,0.2,0.2   c0.5,0.7,1,1.1,1.7,1.6c0.2,0.1,0.3,0.2,0.6,0.3c0.3-0.8,0.9-1.4,1.7-1.6c0.9-0.3,2.1-0.3,3,0C9.8,24,10.3,24.1,10.7,24.2z    M23.5,23.4c1-0.4,1.9-1.2,2.2-2.3c0.1-0.9-0.3-1.8-0.9-2.3c-1,0.4-2.2,0.8-3.2,1.1C22.5,20.8,23.2,22,23.5,23.4z M3.7,21.3   c2.3,0.9,4.6,1.7,7,2.3c0.1-0.5,0.2-0.9,0.3-1.4c0.1-0.4,0.1-0.5-0.3-0.6c-1.3-0.3-2.6-0.5-3.9-0.7C5.8,20.8,4.8,20.9,3.7,21.3   L3.7,21.3z M5.2,25.9c1.6,0.8,3.2,1.3,4.8,1.7c0.1-0.8,0.2-1.5,0.3-2.3c-0.8-0.2-1.6-0.3-2.4-0.4c-0.6-0.1-1.1,0-1.7,0.1   C5.8,25.2,5.3,25.4,5.2,25.9L5.2,25.9z M16.4,5.5c-0.9-0.1-1.9-0.2-2.8-0.3c-0.9,0-1.7,0.2-2.4,0.6c-0.3,0.2-0.5,0.3-0.8,0.6   c0.4,0.1,0.8,0.2,1.1,0.2c1.2,0.2,2.4,0.4,3.8,0.7c0.1,0,0.3,0,0.3-0.1C15.9,6.7,16.1,6.1,16.4,5.5L16.4,5.5z M22.8,10.3   c-0.6-1.7-2-3.1-3.7-3.7c-0.2,0.6-0.4,1-0.7,1.6C19.9,8.9,21.4,9.6,22.8,10.3L22.8,10.3z M10.4,7.9c0,0.1,0,0.1-0.1,0.2   c0.9,1.2,2.3,2.1,3.9,2.3c0.2-0.6,0.4-1,0.7-1.7C13.4,8.5,11.9,8.2,10.4,7.9L10.4,7.9z M19.9,27.1c1.7-0.6,2.9-1.7,2.8-2.8   c-1.1,0.2-2.3,0.4-3.5,0.6C19.7,25.5,19.9,26.3,19.9,27.1L19.9,27.1z M18.7,19.6C18.7,19.6,18.7,19.5,18.7,19.6   c-1.2-0.7-2.4-1.2-3.8-1.8c0,0.1,0,0.1,0,0.1c-0.1,0.1-0.3,0.3-0.3,0.3c0,0.2,0,0.3,0,0.4c-0.1,0.3-0.2,0.6-0.3,0.9L18.7,19.6   L18.7,19.6z M5.3,26.7c1.1,1.5,2.8,2.4,4.6,2.8c0.1-0.5,0.1-0.8,0.2-1.1C8.5,27.8,7,27.1,5.3,26.7z M17,24.4c0-0.1,0-0.2,0.1-0.2   c-1.1-0.6-2.3-1.1-3.4-1.6c-0.3-0.1-0.5,0.1-0.8,0.3h0.5c-0.1,0.4-0.3,0.8-0.4,1.1C14.4,24.1,15.7,24.3,17,24.4z M16.6,13.6   c-0.3,0.5-0.5,0.9-0.8,1.3c0.9-0.2,1.8-0.3,2.6-0.4v-0.2C17.8,14.2,17.2,13.9,16.6,13.6z M10.3,29.5c0.3,0.1,0.4,0.1,0.4-0.3   c0.1-0.4-0.1-0.9,0.3-1.1c0.1-0.1,0.1-0.3,0.1-0.4c0-0.3,0-0.5,0-0.8c0.1-0.3,0.2-0.7,0.2-0.9c0-0.1,0-0.2,0-0.3h-0.1   c-0.2,0.9-0.4,1.9-0.7,2.9l0,0C10.4,28.8,10.3,29.1,10.3,29.5z M11.3,24.5c0.5-0.8,0.7-1.7,0.6-2.6C11.7,22.7,11.5,23.7,11.3,24.5z    M12.3,24.9C12.4,24.9,12.4,24.9,12.3,24.9c0.2-0.4,0.3-0.8,0.3-1.1c-0.1,0-0.1,0-0.1,0C12.2,24,12.2,24.5,12.3,24.9z M12.9,22.3   c-0.2,0.4-0.3,0.8-0.5,1c0,0,0.1,0.1,0.2,0.1C12.8,23.2,12.9,22.8,12.9,22.3z"></path>
</g>
</svg>
